<svg width="32" height="28" viewBox="0 0 32 28" fill="none" xmlns="http://www.w3.org/2000/svg">
<path d="M30.0621 25.4911H1.89057C1.70217 25.4864 1.5146 25.5149 1.33897 25.5748C1.16334 25.6347 1.0032 25.7249 0.868046 25.84C0.732888 25.9551 0.625449 26.0928 0.552084 26.2449C0.478719 26.397 0.440918 26.5605 0.440918 26.7256C0.440918 26.8907 0.478719 27.0542 0.552084 27.2063C0.625449 27.3584 0.732888 27.4961 0.868046 27.6112C1.0032 27.7263 1.16334 27.8165 1.33897 27.8764C1.5146 27.9363 1.70217 27.9648 1.89057 27.9601H30.0621C30.4288 27.951 30.7771 27.8169 31.0328 27.5864C31.2885 27.3558 31.4315 27.0471 31.4315 26.7256C31.4315 26.4041 31.2885 26.0954 31.0328 25.8648C30.7771 25.6343 30.4288 25.5002 30.0621 25.4911Z" fill="#3422F2"/>
<path d="M3.6471 22.2821C3.27326 22.2821 2.91474 22.4122 2.6504 22.6438C2.38605 22.8754 2.23755 23.1895 2.23755 23.5171C2.23755 23.8446 2.38605 24.1587 2.6504 24.3904C2.91474 24.622 3.27326 24.7521 3.6471 24.7521H28.2999C28.6737 24.7521 29.0323 24.622 29.2966 24.3904C29.5609 24.1587 29.7094 23.8446 29.7094 23.5171C29.7094 23.1895 29.5609 22.8754 29.2966 22.6438C29.0323 22.4122 28.6737 22.2821 28.2999 22.2821H27.9484V11.1731H28.2999C28.3947 11.1764 28.4893 11.163 28.578 11.1335C28.6667 11.104 28.7476 11.0591 28.8161 11.0016C28.8845 10.944 28.9389 10.8749 28.9761 10.7984C29.0133 10.722 29.0324 10.6397 29.0324 10.5566C29.0324 10.4735 29.0133 10.3912 28.9761 10.3147C28.9389 10.2383 28.8845 10.1692 28.8161 10.1116C28.7476 10.054 28.6667 10.0091 28.578 9.97967C28.4893 9.9502 28.3947 9.93673 28.2999 9.94008H3.6471C3.55231 9.93673 3.45773 9.9502 3.36903 9.97967C3.28033 10.0091 3.19934 10.054 3.13093 10.1116C3.06251 10.1692 3.00808 10.2383 2.9709 10.3147C2.93372 10.3912 2.91455 10.4735 2.91455 10.5566C2.91455 10.6397 2.93372 10.722 2.9709 10.7984C3.00808 10.8749 3.06251 10.944 3.13093 11.0016C3.19934 11.0591 3.28033 11.104 3.36903 11.1335C3.45773 11.163 3.55231 11.1764 3.6471 11.1731H3.99977V22.2811H3.6471V22.2821ZM25.1327 11.1731V22.2811H20.9098V11.1731H25.1327ZM18.0895 11.1731V22.2811H13.8666V11.1731H18.0895ZM6.82114 11.1731H11.0441V22.2811H6.82L6.82114 11.1731Z" fill="#3422F2"/>
<path d="M1.88945 8.83004H30.0804C30.4121 8.82774 30.7323 8.723 30.9846 8.53425C31.2369 8.34549 31.4051 8.08482 31.4596 7.79811C31.5141 7.5114 31.4515 7.21703 31.2827 6.96679C31.114 6.71655 30.8499 6.52648 30.5369 6.43004L16.5556 0.917043C16.3738 0.845554 16.1768 0.808594 15.9775 0.808594C15.7782 0.808594 15.5812 0.845554 15.3994 0.917043L1.31194 6.47004C1.01768 6.58564 0.777618 6.7862 0.631848 7.03823C0.486077 7.29026 0.443431 7.57848 0.511035 7.85474C0.57864 8.13101 0.752399 8.37857 1.00328 8.55609C1.25417 8.7336 1.56698 8.83031 1.88945 8.83004Z" fill="#3422F2"/>
</svg>
