<svg width="29" height="16" viewBox="0 0 29 16" fill="none" xmlns="http://www.w3.org/2000/svg">
<path d="M26.8079 16H2.19291C1.86668 15.9992 1.55403 15.8693 1.32334 15.6386C1.09265 15.4079 0.962706 15.0952 0.961914 14.769L0.961914 1.22801C0.962706 0.901772 1.09265 0.589122 1.32334 0.358437C1.55403 0.127751 1.86668 -0.00219856 2.19291 -0.00299072H26.8079C27.1342 -0.00219856 27.4468 0.127751 27.6775 0.358437C27.9082 0.589122 28.0381 0.901772 28.0389 1.22801V14.769C28.0381 15.0952 27.9082 15.4079 27.6775 15.6386C27.4468 15.8693 27.1342 15.9992 26.8079 16Z" fill="#0E9347"/>
<path d="M23.7318 11.077C23.0549 11.0685 22.3864 11.2269 21.7854 11.5382C21.1843 11.8496 20.6693 12.3042 20.2858 12.862C19.6425 12.5132 18.9253 12.3233 18.1938 12.308C17.1609 12.3118 16.1638 12.6868 15.3843 13.3646C14.6049 14.0423 14.095 14.9777 13.9478 16H26.8098C27.1054 15.9991 27.3912 15.8935 27.6165 15.7021C27.8418 15.5106 27.9921 15.2456 28.0408 14.954C27.9174 13.8941 27.4117 12.9155 26.6184 12.2018C25.8252 11.488 24.7988 11.0881 23.7318 11.077Z" fill="#0D8944"/>
<path d="M24.3469 14.769H4.65487C4.65302 14.1166 4.39304 13.4915 3.93173 13.0302C3.47041 12.5688 2.84527 12.3089 2.19287 12.307V3.69302C2.84527 3.69117 3.47041 3.43119 3.93173 2.96987C4.39304 2.50856 4.65302 1.88341 4.65487 1.23102H24.3469C24.3487 1.88341 24.6087 2.50856 25.07 2.96987C25.5313 3.43119 26.1565 3.69117 26.8089 3.69302V12.308C26.1566 12.3099 25.5317 12.5697 25.0704 13.0308C24.6091 13.4919 24.349 14.1168 24.3469 14.769Z" fill="#3BB54A"/>
<path d="M23.7309 11.077C23.0541 11.0685 22.3856 11.2269 21.7845 11.5382C21.1835 11.8496 20.6684 12.3042 20.2849 12.862C19.6417 12.5132 18.9244 12.3233 18.1929 12.308C17.3781 12.3011 16.5787 12.5297 15.8909 12.9665C15.203 13.4033 14.6561 14.0296 14.3159 14.77H24.3469C24.3452 14.1272 24.5955 13.5093 25.0443 13.049C25.493 12.5887 26.1043 12.3227 26.7469 12.308C25.9334 11.5311 24.8557 11.0913 23.7309 11.077Z" fill="#0E9347"/>
<path d="M14.4997 13.538C17.2186 13.538 19.4227 11.0586 19.4227 8.00001C19.4227 4.94145 17.2186 2.46201 14.4997 2.46201C11.7808 2.46201 9.57666 4.94145 9.57666 8.00001C9.57666 11.0586 11.7808 13.538 14.4997 13.538Z" fill="#0E9347"/>
<path d="M7.11577 9.23202C7.79563 9.23202 8.34677 8.68088 8.34677 8.00102C8.34677 7.32116 7.79563 6.77002 7.11577 6.77002C6.4359 6.77002 5.88477 7.32116 5.88477 8.00102C5.88477 8.68088 6.4359 9.23202 7.11577 9.23202Z" fill="#0E9347"/>
<path d="M21.8848 9.23202C22.5647 9.23202 23.1158 8.68088 23.1158 8.00102C23.1158 7.32116 22.5647 6.77002 21.8848 6.77002C21.2049 6.77002 20.6538 7.32116 20.6538 8.00102C20.6538 8.68088 21.2049 9.23202 21.8848 9.23202Z" fill="#0E9347"/>
<path d="M15.1161 7.38499H13.8841C13.7209 7.38499 13.5643 7.32015 13.4489 7.20472C13.3334 7.08929 13.2686 6.93273 13.2686 6.76949C13.2686 6.60625 13.3334 6.4497 13.4489 6.33427C13.5643 6.21885 13.7209 6.15399 13.8841 6.15399H15.7301C15.8933 6.15399 16.0499 6.08915 16.1653 5.97372C16.2807 5.85829 16.3456 5.70174 16.3456 5.5385C16.3456 5.37526 16.2807 5.2187 16.1653 5.10327C16.0499 4.98784 15.8933 4.923 15.7301 4.923H15.1151C15.1151 4.75976 15.0502 4.6032 14.9348 4.48777C14.8194 4.37234 14.6628 4.3075 14.4996 4.3075C14.3363 4.3075 14.1798 4.37234 14.0644 4.48777C13.9489 4.6032 13.8841 4.75976 13.8841 4.923C13.6417 4.923 13.4016 4.97074 13.1777 5.06351C12.9537 5.15628 12.7502 5.29226 12.5788 5.46368C12.4073 5.63509 12.2714 5.83859 12.1786 6.06256C12.0858 6.28653 12.0381 6.52658 12.0381 6.769C12.0381 7.01142 12.0858 7.25146 12.1786 7.47543C12.2714 7.69939 12.4073 7.90289 12.5788 8.07431C12.7502 8.24573 12.9537 8.38171 13.1777 8.47448C13.4016 8.56725 13.6417 8.615 13.8841 8.615H15.1151C15.2783 8.615 15.4349 8.67984 15.5503 8.79527C15.6657 8.9107 15.7306 9.06725 15.7306 9.23049C15.7306 9.39373 15.6657 9.55029 15.5503 9.66572C15.4349 9.78115 15.2783 9.84599 15.1151 9.84599H13.2691C13.1058 9.84599 12.9493 9.91084 12.8339 10.0263C12.7184 10.1417 12.6536 10.2983 12.6536 10.4615C12.6536 10.6247 12.7184 10.7813 12.8339 10.8967C12.9493 11.0121 13.1058 11.077 13.2691 11.077H13.8841C13.8841 11.2402 13.9489 11.3968 14.0644 11.5122C14.1798 11.6277 14.3363 11.6925 14.4996 11.6925C14.6628 11.6925 14.8194 11.6277 14.9348 11.5122C15.0502 11.3968 15.1151 11.2402 15.1151 11.077C15.6047 11.077 16.0742 10.8825 16.4204 10.5363C16.7666 10.1901 16.9611 9.72058 16.9611 9.231C16.9611 8.74141 16.7666 8.27187 16.4204 7.92567C16.0742 7.57948 15.6047 7.38499 15.1151 7.38499H15.1161Z" fill="#89C763"/>
</svg>
