<svg width="40" height="40" viewBox="0 0 40 40" fill="none" xmlns="http://www.w3.org/2000/svg">
<circle cx="20" cy="20" r="20" fill="#F0F0F0"/>
<path d="M10.0012 19.9996C10.0012 25.5225 14.4781 29.999 20.0004 29.999C25.5229 29.999 29.9998 25.5225 29.9998 19.9996C29.9998 14.4775 25.5229 10.0007 20.0004 10.0007C14.4781 10.0007 10.0012 14.4775 10.0012 19.9996Z" fill="#25B7D3"/>
<path d="M25.9006 23.9003L23.9008 25.9001C23.4684 26.3325 22.7674 26.3324 22.3351 25.9001L19.2464 22.8114C18.8141 22.379 18.814 21.678 19.2463 21.2456L21.2462 19.2458C21.6785 18.8134 22.3796 18.8135 22.8119 19.2459L25.9006 22.3346C26.3329 22.7669 26.333 23.4679 25.9006 23.9003ZM22.6006 20.5099C22.3471 20.2565 21.9362 20.2564 21.6827 20.5099L20.5105 21.6822C20.257 21.9356 20.257 22.3466 20.5105 22.6L22.5464 24.636C22.7998 24.8894 23.2108 24.8894 23.4643 24.636L24.6365 23.4637C24.89 23.2103 24.8899 22.7993 24.6365 22.5459L22.6006 20.5099Z" fill="white"/>
<path d="M20.7546 18.7541L18.7549 20.7539C18.3225 21.1862 17.6215 21.1862 17.1891 20.7539L14.1004 17.6651C13.6681 17.2327 13.668 16.5317 14.1004 16.0994L16.1002 14.0996C16.5325 13.6672 17.2336 13.6673 17.6659 14.0996L20.7547 17.1884C21.1869 17.6207 21.187 18.3217 20.7546 18.7541ZM17.4546 15.3637C17.2011 15.1103 16.7902 15.1102 16.5367 15.3637L15.3644 16.536C15.111 16.7894 15.111 17.2003 15.3644 17.4538L17.4004 19.4898C17.6538 19.7432 18.0648 19.7432 18.3183 19.4898L19.4905 18.3175C19.744 18.064 19.7439 17.6531 19.4905 17.3996L17.4546 15.3637Z" fill="white"/>
<path d="M22.3716 22.2734L22.274 22.371C21.962 22.6831 21.4542 22.6831 21.1421 22.371L17.6293 18.8583C17.3172 18.5462 17.3172 18.0384 17.6293 17.7264L17.7268 17.6288C18.0389 17.3168 18.5467 17.3168 18.8588 17.6288L22.3716 21.1416C22.6836 21.4536 22.6836 21.9614 22.3716 22.2734Z" fill="#48A1AF"/>
<path d="M18.6832 17.8044C18.4677 17.5888 18.1181 17.5888 17.9026 17.8044L17.805 17.9019C17.5894 18.1175 17.5894 18.467 17.805 18.6826L21.3178 22.1954C21.5334 22.411 21.8829 22.4109 22.0985 22.1953L22.196 22.0978C22.4115 21.8822 22.4116 21.5327 22.196 21.3172L18.6832 17.8044Z" fill="white"/>
</svg>
