<svg width="43" height="33" viewBox="0 0 43 33" fill="none" xmlns="http://www.w3.org/2000/svg">
<path d="M27.0085 5.417H16.6025V5.317L16.7715 3.732L17.0035 1.619C17.0316 1.43285 17.1265 1.26327 17.2703 1.14184C17.4142 1.02042 17.5973 0.955436 17.7855 0.959002H25.8245C26.0157 0.95911 26.2001 1.0298 26.3424 1.1575C26.4847 1.2852 26.5748 1.46094 26.5955 1.651L26.8275 3.764L26.9965 5.349L27.0085 5.417Z" fill="#F6C863"/>
<path d="M26.9978 5.31699H16.6128L16.7818 3.73799H26.8288L26.9978 5.31699Z" fill="#EAB54E"/>
<path d="M36.2158 11.444H40.0298V13.144H36.2158V11.444Z" fill="#EAB54E"/>
<path d="M41.2377 9.754H40.1667C39.23 9.754 38.4707 10.5131 38.4707 11.4495C38.4707 12.3859 39.23 13.145 40.1667 13.145H41.2377C42.1744 13.145 42.9337 12.3859 42.9337 11.4495C42.9337 10.5131 42.1744 9.754 41.2377 9.754Z" fill="#F6C863"/>
<path d="M3.58154 11.444H7.39554V13.144H3.58154V11.444Z" fill="#EAB54E"/>
<path d="M3.44376 9.754H2.37276C1.43608 9.754 0.676758 10.5131 0.676758 11.4495C0.676758 12.3859 1.43608 13.145 2.37276 13.145H3.44376C4.38043 13.145 5.13976 12.3859 5.13976 11.4495C5.13976 10.5131 4.38043 9.754 3.44376 9.754Z" fill="#F6C863"/>
<path d="M40.5729 25.96V32.299C40.5729 32.4018 40.5324 32.5005 40.4601 32.5737C40.3879 32.6469 40.2897 32.6887 40.1869 32.69H36.1629C36.06 32.6887 35.9619 32.6469 35.8896 32.5737C35.8174 32.5005 35.7768 32.4018 35.7769 32.299V25.96H40.5729Z" fill="#414451"/>
<path d="M36.6909 27.571H37.1289V32.671H36.6909V27.571Z" fill="#373A44"/>
<path d="M37.9526 27.571H38.3906V32.671H37.9526V27.571Z" fill="#373A44"/>
<path d="M39.2207 27.571H39.6587V32.671H39.2207V27.571Z" fill="#373A44"/>
<path d="M7.8336 25.96V32.299C7.83361 32.4018 7.7931 32.5005 7.72085 32.5737C7.6486 32.6469 7.55043 32.6887 7.4476 32.69H3.4236C3.32077 32.6887 3.2226 32.6469 3.15035 32.5737C3.0781 32.5005 3.03759 32.4018 3.0376 32.299V25.96H7.8336Z" fill="#414451"/>
<path d="M3.95166 27.571H4.38966V32.671H3.95166V27.571Z" fill="#373A44"/>
<path d="M5.21387 27.571H5.65187V32.671H5.21387V27.571Z" fill="#373A44"/>
<path d="M6.48193 27.571H6.91993V32.671H6.48193V27.571Z" fill="#373A44"/>
<path d="M40.5726 17.038V26.446C40.5726 26.8579 40.409 27.2529 40.1177 27.5441C39.8265 27.8354 39.4315 27.999 39.0196 27.999H4.59061C4.17873 27.999 3.78372 27.8354 3.49247 27.5441C3.20123 27.2529 3.03761 26.8579 3.03761 26.446V17.038C3.03631 16.6635 3.17139 16.3012 3.41761 16.019L6.01761 13.024L8.74761 5.775C8.87886 5.41053 9.11915 5.09532 9.43584 4.87221C9.75252 4.6491 10.1302 4.52891 10.5176 4.528H33.1886C33.5753 4.52856 33.9524 4.64869 34.2682 4.87193C34.584 5.09517 34.8231 5.4106 34.9526 5.775L37.5936 13.027L40.1936 16.022C40.4398 16.3042 40.5749 16.6665 40.5736 17.041L40.5726 17.038Z" fill="#F6C863"/>
<path d="M30.6266 18.517L30.1936 21.031C30.1814 21.1018 30.1447 21.1661 30.0898 21.2125C30.035 21.259 29.9655 21.2846 29.8936 21.285H13.7286C13.6568 21.2846 13.5873 21.259 13.5324 21.2125C13.4776 21.1661 13.4408 21.1018 13.4286 21.031L12.9956 18.531C12.9876 18.4873 12.9894 18.4425 13.0009 18.3996C13.0123 18.3567 13.0332 18.3169 13.0619 18.283C13.0906 18.2492 13.1264 18.2221 13.1668 18.2037C13.2073 18.1854 13.2512 18.1763 13.2956 18.177H30.3256C30.3689 18.1766 30.4118 18.1855 30.4513 18.2032C30.4908 18.2209 30.526 18.2469 30.5545 18.2795C30.583 18.3121 30.6042 18.3504 30.6164 18.392C30.6287 18.4335 30.6318 18.4772 30.6256 18.52L30.6266 18.517Z" fill="#575B6D"/>
<path d="M37.852 19.584C37.8528 20.1159 37.6693 20.6316 37.3326 21.0434C36.996 21.4552 36.527 21.7376 36.0056 21.8425C35.4841 21.9474 34.9424 21.8683 34.4727 21.6187C34.003 21.3692 33.6344 20.9645 33.4295 20.4737C33.2246 19.9828 33.1961 19.4361 33.349 18.9267C33.5018 18.4172 33.8265 17.9765 34.2678 17.6795C34.7091 17.3826 35.2396 17.2477 35.7691 17.2979C36.2986 17.3482 36.7944 17.5804 37.172 17.955C37.387 18.1684 37.5578 18.4221 37.6745 18.7017C37.7911 18.9812 37.8515 19.2811 37.852 19.584Z" fill="#EEEFEE"/>
<path d="M36.326 24.903C36.3247 25.1863 36.2252 25.4603 36.0446 25.6786C35.864 25.8968 35.6133 26.0456 35.3352 26.0998C35.0572 26.154 34.769 26.1101 34.5196 25.9757C34.2703 25.8412 34.0752 25.6245 33.9677 25.3625C33.8601 25.1004 33.8468 24.8091 33.9298 24.5383C34.0128 24.2675 34.1872 24.0338 34.4231 23.877C34.6591 23.7203 34.9421 23.6502 35.2239 23.6786C35.5058 23.707 35.7691 23.8323 35.969 24.033C36.1984 24.2643 36.3268 24.5772 36.326 24.903Z" fill="#EEEFEE"/>
<path d="M5.75782 19.584C5.75697 20.1159 5.94049 20.6316 6.27714 21.0434C6.6138 21.4552 7.08277 21.7376 7.60421 21.8425C8.12565 21.9474 8.66734 21.8683 9.13704 21.6187C9.60674 21.3692 9.97542 20.9645 10.1803 20.4737C10.3852 19.9828 10.4136 19.4361 10.2608 18.9267C10.1079 18.4172 9.78323 17.9765 9.34197 17.6795C8.9007 17.3826 8.37015 17.2477 7.84064 17.2979C7.31112 17.3482 6.81538 17.5804 6.43782 17.955C6.22278 18.1684 6.05201 18.4221 5.93532 18.7017C5.81862 18.9812 5.7583 19.2811 5.75782 19.584Z" fill="#EEEFEE"/>
<path d="M7.28467 24.903C7.28596 25.1863 7.38539 25.4603 7.56603 25.6786C7.74667 25.8968 7.99735 26.0456 8.2754 26.0998C8.55345 26.154 8.84168 26.1101 9.09103 25.9757C9.34037 25.8412 9.53542 25.6245 9.64296 25.3625C9.7505 25.1004 9.76389 24.8091 9.68084 24.5383C9.5978 24.2675 9.42346 24.0338 9.1875 23.877C8.95154 23.7203 8.66855 23.6502 8.3867 23.6786C8.10485 23.707 7.84157 23.8323 7.64167 24.033C7.41223 24.2643 7.28385 24.5772 7.28467 24.903Z" fill="#EEEFEE"/>
<path d="M30.8329 25.838V27.998H12.7939V25.838C12.7939 25.6322 12.8757 25.4348 13.0212 25.2893C13.1668 25.1438 13.3641 25.062 13.5699 25.062H30.0539C30.1564 25.0612 30.2579 25.0807 30.3527 25.1193C30.4476 25.158 30.5338 25.215 30.6065 25.2872C30.6792 25.3593 30.7369 25.4451 30.7763 25.5397C30.8157 25.6342 30.836 25.7356 30.8359 25.838H30.8329Z" fill="#575B6D"/>
<path d="M36.2099 13.832H7.40088L10.2319 6.321C10.2527 6.2538 10.2939 6.19475 10.3498 6.15208C10.4057 6.10942 10.4736 6.08527 10.5439 6.083H33.2149C33.2801 6.08163 33.3442 6.10077 33.398 6.13773C33.4518 6.17468 33.4927 6.22759 33.5149 6.289L36.2099 13.832Z" fill="#69B0EE"/>
<path opacity="0.5" d="M21.2726 6.08301L17.2956 13.832H16.0376L20.0096 6.08301H21.2726Z" fill="#EEEFEE"/>
<path opacity="0.5" d="M27.3677 6.08301L23.3937 13.832H19.2437L23.2206 6.08301H27.3677Z" fill="#EEEFEE"/>
</svg>
