<svg width="40" height="40" viewBox="0 0 40 40" fill="none" xmlns="http://www.w3.org/2000/svg">
<circle cx="20" cy="20" r="20" fill="#F0F0F0"/>
<path d="M11.761 11.5666C10.2321 13.1546 10.545 14.8416 10.545 19.9666C10.545 24.2225 9.80249 28.489 13.6888 29.4934C14.9023 29.8055 25.6548 29.8055 26.8668 29.4918C28.4848 29.0743 29.8013 27.7618 29.9813 25.4733C30.0064 25.1539 30.0064 14.7849 29.9805 14.459C29.7892 12.0214 28.2886 10.6165 26.3115 10.332C25.8583 10.2663 25.7675 10.2468 23.4426 10.2428C15.1958 10.2468 13.388 9.87961 11.761 11.5666Z" fill="url(#paint0_linear_95_2506)"/>
<path d="M20.2712 12.7875C17.3277 12.7875 14.5325 12.5256 13.4649 15.2656C13.0239 16.3973 13.088 17.867 13.088 19.9715C13.088 21.8181 13.0288 23.5537 13.4649 24.6765C14.5301 27.4181 17.3479 27.1555 20.2695 27.1555C23.0882 27.1555 25.9944 27.4489 27.075 24.6765C27.5168 23.5335 27.4519 22.0857 27.4519 19.9715C27.4519 17.165 27.6068 15.3532 26.2457 13.9929C24.8676 12.6148 23.0039 12.7875 20.2679 12.7875H20.2712ZM19.6275 14.0821C25.7674 14.0723 26.5489 13.3898 26.1176 22.872C25.9644 26.2257 23.4108 25.8576 20.272 25.8576C14.5488 25.8576 14.3842 25.6939 14.3842 19.9682C14.3842 14.1761 14.8382 14.0853 19.6275 14.0804V14.0821ZM24.1056 15.2745C23.6297 15.2745 23.2438 15.6604 23.2438 16.1363C23.2438 16.6121 23.6297 16.998 24.1056 16.998C24.5814 16.998 24.9673 16.6121 24.9673 16.1363C24.9673 15.6604 24.5814 15.2745 24.1056 15.2745ZM20.2712 16.2822C18.234 16.2822 16.5827 17.9343 16.5827 19.9715C16.5827 22.0086 18.234 23.6599 20.2712 23.6599C22.3083 23.6599 23.9588 22.0086 23.9588 19.9715C23.9588 17.9343 22.3083 16.2822 20.2712 16.2822ZM20.2712 17.5768C23.4368 17.5768 23.4408 22.3661 20.2712 22.3661C17.1064 22.3661 17.1015 17.5768 20.2712 17.5768Z" fill="white"/>
<defs>
<linearGradient id="paint0_linear_95_2506" x1="11.7983" y1="28.4558" x2="29.8803" y2="12.806" gradientUnits="userSpaceOnUse">
<stop stop-color="#FFDD55"/>
<stop offset="0.5" stop-color="#FF543E"/>
<stop offset="1" stop-color="#C837AB"/>
</linearGradient>
</defs>
</svg>
