<svg width="137" height="149" viewBox="0 0 137 149" fill="none" xmlns="http://www.w3.org/2000/svg">
<path d="M114.172 85.1693L105.046 148.702L48.1538 148.409L57.2507 84.8768L114.172 85.1693Z" fill="url(#paint0_linear_96_2664)"/>
<path d="M57.2507 84.8769L48.1538 148.409L19.9563 129.864L29.0532 66.332L57.2507 84.8769Z" fill="url(#paint1_linear_96_2664)"/>
<path fill-rule="evenodd" clip-rule="evenodd" d="M114.172 85.1694L57.2508 84.8769L29.0532 66.332L85.9455 66.6245L114.172 85.1694ZM57.4555 84.3211L112.33 84.6136L85.7993 67.1511L30.9253 66.8878L57.4555 84.3211Z" fill="url(#paint2_linear_96_2664)"/>
<path style="mix-blend-mode:multiply" d="M78.1065 115.561C75.591 133.257 72.2856 147.444 70.7354 147.21C69.2143 146.976 70.0041 132.467 72.5489 114.771C75.0645 97.0743 78.3697 82.917 79.92 83.1511C81.4411 83.3558 80.6513 97.8641 78.1065 115.561Z" fill="url(#paint3_radial_96_2664)"/>
<path style="mix-blend-mode:multiply" d="M91.3568 116.906C88.8705 134.31 85.5945 148.234 84.0442 148.029C82.5232 147.795 83.2837 133.521 85.77 116.116C88.2563 98.7124 91.5323 84.7892 93.0534 85.0232C94.6036 85.2279 93.8431 99.5314 91.3568 116.906Z" fill="url(#paint4_radial_96_2664)"/>
<path style="mix-blend-mode:multiply" d="M35.6639 106.493C33.1191 124.19 29.843 138.347 28.2927 138.142C26.7717 137.908 27.5615 123.4 30.1063 105.703C32.6218 88.0067 35.9271 73.8494 37.4481 74.0542C38.9984 74.2882 38.1794 88.7965 35.6639 106.493Z" fill="url(#paint5_radial_96_2664)"/>
<path style="mix-blend-mode:multiply" d="M44.7607 109.213C42.2744 126.617 38.9984 140.541 37.4773 140.307C35.9271 140.102 36.7168 125.828 39.2031 108.424C41.6894 91.0195 44.9362 77.0963 46.4865 77.3303C48.0075 77.5351 47.247 91.8093 44.7607 109.213Z" fill="url(#paint6_radial_96_2664)"/>
<path d="M78.6914 84.9939L93.7847 85.0817L84.717 148.585L69.6238 148.526L78.6914 84.9939Z" fill="url(#paint7_linear_96_2664)"/>
<path d="M36.4244 71.1876L47.3933 78.3833L38.2964 141.915L27.3567 134.72L36.4244 71.1876Z" fill="url(#paint8_linear_96_2664)"/>
<path d="M70.5597 23.948L105.836 32.4014L48.2707 52.906L12.9653 44.4819L70.5597 23.948Z" fill="url(#paint9_linear_96_2664)"/>
<path d="M105.836 32.4014L108.732 46.4416L51.1666 66.9463L48.2708 52.906L105.836 32.4014Z" fill="url(#paint10_linear_96_2664)"/>
<path d="M48.2707 52.906L51.1665 66.9462L15.8611 58.5221L12.9653 44.4818L48.2707 52.906Z" fill="url(#paint11_linear_96_2664)"/>
<path style="mix-blend-mode:multiply" d="M28.7606 58.8146C32.3292 76.0431 34.0257 90.2296 32.5047 90.5514C30.9837 90.8731 26.8301 77.1839 23.2615 59.9846C19.6637 42.7853 17.9964 28.5695 19.5175 28.2477C21.0385 27.926 25.1628 41.6152 28.7606 58.8146Z" fill="url(#paint12_radial_96_2664)"/>
<path style="mix-blend-mode:multiply" d="M40.0221 57.7324C43.6199 74.9317 45.2872 89.1475 43.7662 89.4693C42.2452 89.7618 38.0916 76.0725 34.523 58.8732C30.9252 41.6739 29.2579 27.4581 30.7789 27.1656C32.3 26.8438 36.4535 40.5331 40.0221 57.7324Z" fill="url(#paint13_radial_96_2664)"/>
<path style="mix-blend-mode:multiply" d="M74.684 52.4964C78.2818 69.725 79.9491 83.9115 78.428 84.2333C76.907 84.555 72.7534 70.8658 69.1849 53.6665C65.5871 36.4379 63.9198 22.2514 65.4408 21.9296C66.9618 21.6079 71.1154 35.2971 74.684 52.4964Z" fill="url(#paint14_radial_96_2664)"/>
<path style="mix-blend-mode:multiply" d="M87.525 49.3374C91.1228 66.5367 92.7901 80.7525 91.2691 81.0742C89.7481 81.3667 85.5945 67.6775 82.0259 50.4782C78.4281 33.2788 76.7608 19.0631 78.2819 18.7706C79.8029 18.4488 83.9565 32.1381 87.525 49.3374Z" fill="url(#paint15_radial_96_2664)"/>
<path d="M22.969 46.8512L35.7222 49.9225L38.6473 63.9628L25.9233 60.9207L22.969 46.8512Z" fill="url(#paint16_linear_96_2664)"/>
<path d="M69.3604 45.3886L83.5761 40.3282L86.5012 54.3685L72.2854 59.4289L69.3604 45.3886Z" fill="url(#paint17_linear_96_2664)"/>
<path d="M83.5762 40.3283L69.3604 45.3887L36.7168 36.0285L50.8741 30.9681L83.5762 40.3283Z" fill="url(#paint18_linear_96_2664)"/>
<path d="M91.3568 28.9205L35.7222 49.9224L27.2103 47.8748L22.969 46.8511L78.6035 25.8784L91.3568 28.9205Z" fill="url(#paint19_linear_96_2664)"/>
<path d="M89.6895 10.522C83.4592 5.72487 59.0057 23.7725 65.9674 39.129L61.843 35.5312C53.0971 27.575 76.2928 -0.0667324 85.5652 6.92415L89.6895 10.522Z" fill="url(#paint20_linear_96_2664)"/>
<path d="M61.843 35.5312C67.6639 39.48 88.0808 22.3392 87.525 11.2533C87.4373 9.43974 86.7645 7.97721 85.5652 6.92419L89.6896 10.522C98.8157 19.6774 75.7078 40.5916 67.4299 39.6848C66.8741 39.6263 66.2891 39.3923 65.9674 39.129L61.843 35.5312Z" fill="url(#paint21_linear_96_2664)"/>
<path d="M76.0003 2.12701C68.4829 -0.154534 51.8979 25.2934 63.7736 37.2569L58.684 35.3264C47.6858 30.9388 59.737 -3.07959 70.8815 0.225723L76.0003 2.12701Z" fill="url(#paint22_linear_96_2664)"/>
<path d="M58.6841 35.3265C65.4995 36.9645 78.6329 13.7688 74.2161 3.58964C73.4848 1.92236 72.3733 0.78159 70.8815 0.22583L76.0004 2.12712C87.7591 7.53846 73.4263 35.2095 65.3532 37.257C64.7974 37.4033 64.1832 37.4033 63.7737 37.257L58.6841 35.3265Z" fill="url(#paint23_linear_96_2664)"/>
<path d="M22.3256 20.1454C28.0295 10.0247 60.3513 26.1125 55.4958 36.906L53.1557 41.8201C53.3897 24.9718 23.7882 18.2149 19.9856 25.0888L22.3256 20.1454Z" fill="url(#paint24_linear_96_2664)"/>
<path d="M53.1556 41.82C52.9801 42.2295 52.5414 42.6683 52.0441 42.9316C44.8192 47.0559 15.2762 37.1399 19.9855 25.0887L22.3255 20.1454C21.6528 21.5787 21.6235 23.1874 22.2671 24.884C26.1574 35.2972 51.7223 42.8438 55.4957 36.906L53.1556 41.82Z" fill="url(#paint25_linear_96_2664)"/>
<path d="M31.9196 8.35745C40.8702 0.957063 65.3529 27.4873 56.958 35.853L53.0385 39.6263C59.2396 23.948 33.9964 7.07042 28 12.1308L31.9196 8.35745Z" fill="url(#paint26_linear_96_2664)"/>
<path d="M53.0386 39.6262C52.7168 39.9188 52.1318 40.1528 51.576 40.2405C43.3566 41.5275 19.3127 21.7249 28.0001 12.1307L31.9197 8.35742C30.7789 9.46894 30.1939 10.9607 30.1939 12.7743C30.1354 23.8895 51.3421 40.065 56.9582 35.8529L53.0386 39.6262Z" fill="url(#paint27_linear_96_2664)"/>
<path style="mix-blend-mode:multiply" d="M80.0076 38.076C81.2946 44.3356 73.5432 51.2387 62.662 53.5203C51.7808 55.7725 41.8941 52.555 40.6071 46.2954C39.2908 40.0358 47.0715 33.1326 57.9527 30.8803C68.8339 28.5988 78.6913 31.8456 80.0076 38.076Z" fill="url(#paint28_radial_96_2664)"/>
<path d="M40.8704 24.1235C43.5322 20.8767 61.4335 33.9225 59.0349 37.4618L55.3201 42.6684C51.9856 36.2625 36.9508 29.5349 37.3895 29.0084L40.8704 24.1235Z" fill="url(#paint29_linear_96_2664)"/>
<path d="M55.3202 42.6684C55.2325 42.7854 55.057 42.9316 54.8522 42.9901C52.0149 44.0139 34.9618 32.9865 37.3896 29.0084L40.8704 24.1235C38.8522 26.9608 56.3732 37.6665 59.035 37.4618L55.3202 42.6684Z" fill="url(#paint30_linear_96_2664)"/>
<path d="M58.8596 37.1107C55.5543 34.5659 67.9565 16.2258 71.5835 18.5074L76.9071 22.0467C70.6183 25.6153 64.4172 40.8548 63.8614 40.416L58.8596 37.1107Z" fill="url(#paint31_linear_96_2664)"/>
<path d="M76.9072 22.0466C77.0534 22.1344 77.1705 22.3099 77.2582 22.4854C78.3697 25.2935 67.9273 42.7268 63.8615 40.416L58.8596 37.1107C61.7847 39.0412 71.8761 21.1399 71.5836 18.5073L76.9072 22.0466Z" fill="url(#paint32_linear_96_2664)"/>
<path style="mix-blend-mode:multiply" d="M65.4992 36.1161C66.6692 41.7322 61.4627 47.5823 53.8575 49.1911C46.2524 50.7706 39.1153 47.4946 37.9452 41.8492C36.7752 36.2331 41.9818 30.383 49.5869 28.7742C57.2213 27.1947 64.3292 30.4708 65.4992 36.1161Z" fill="url(#paint33_radial_96_2664)"/>
<path style="mix-blend-mode:multiply" d="M81.5871 31.6993C82.7571 37.3447 77.5213 43.1948 69.9162 44.7743C62.311 46.3538 55.2032 43.0778 54.0331 37.4324C52.8339 31.8163 58.0697 25.9662 65.6749 24.3867C73.28 22.8072 80.3879 26.0832 81.5871 31.6993Z" fill="url(#paint34_radial_96_2664)"/>
<path d="M48.534 38.1344C49.2068 37.3739 67.8394 33.8346 68.5999 34.1564L72.3732 37.8127C63.715 37.0522 46.3987 43.1363 46.7205 42.4635L48.534 38.1344Z" fill="url(#paint35_linear_96_2664)"/>
<path d="M72.3733 37.8128C72.4903 37.9298 72.5488 38.1053 72.5488 38.2808C72.4318 40.9134 44.9655 47.7288 46.7206 42.4637L48.5341 38.1346C47.5981 40.3869 67.4884 35.3558 68.6 34.1565L72.3733 37.8128Z" fill="url(#paint36_linear_96_2664)"/>
<path d="M82.3476 74.0248C82.6108 74.0833 83.0496 74.0833 83.3713 74.1126C83.4006 74.7268 83.5468 75.3119 83.7808 75.8091C83.5078 75.6726 83.264 75.5069 83.0495 75.3119C82.6985 74.9609 82.4646 74.4928 82.3476 74.0248ZM82.3476 72.7963C82.6401 72.7671 83.0203 72.7086 83.3713 72.6793C83.3421 73.1181 83.3128 73.6153 83.3713 74.1126C83.0496 74.0833 82.6108 74.0833 82.3476 74.0248C82.2598 73.6153 82.2598 73.2058 82.3476 72.7963ZM83.0495 71.5385C83.264 71.324 83.5078 71.1485 83.7808 71.012C83.576 71.4215 83.4298 72.0358 83.3713 72.6793C83.0203 72.7086 82.6401 72.7671 82.3476 72.7963C82.4646 72.2991 82.7278 71.8895 83.0495 71.5385ZM83.3713 74.1126C84.1318 74.2296 84.9216 74.2588 85.7114 74.2296C85.6821 74.8731 85.6529 75.4874 85.5944 76.0139C84.9801 76.1601 84.3366 76.1016 83.7808 75.8091C83.5468 75.3119 83.4006 74.7268 83.3713 74.1126ZM83.3713 72.6793C84.1611 72.6208 84.9216 72.5916 85.6821 72.6208C85.7113 73.1181 85.7114 73.6738 85.7114 74.2296C84.9216 74.2588 84.1318 74.2296 83.3713 74.1126C83.3128 73.6153 83.3421 73.1181 83.3713 72.6793ZM83.7808 71.012C84.3366 70.7488 84.9801 70.6903 85.5944 70.8365C85.6529 71.3045 85.6528 71.9773 85.6821 72.6208C84.9216 72.5916 84.1611 72.6208 83.3713 72.6793C83.4298 72.0358 83.576 71.4215 83.7808 71.012ZM85.7114 74.2296C86.2671 74.1711 87.0276 74.1126 87.5541 74.0248C87.4371 74.4928 87.1739 74.9609 86.8229 75.3119C86.5011 75.6336 86.0624 75.8969 85.5944 76.0139C85.6529 75.4874 85.6821 74.8731 85.7114 74.2296ZM85.6821 72.6208C86.3061 72.6598 86.9301 72.7183 87.5541 72.7963C87.6419 73.2058 87.6419 73.6153 87.5541 74.0248C87.0276 74.1126 86.2671 74.1711 85.7114 74.2296C85.7114 73.6738 85.7113 73.1181 85.6821 72.6208ZM85.5944 70.8365C86.0624 70.9535 86.5011 71.1875 86.8229 71.5385C87.1739 71.8895 87.4371 72.2991 87.5541 72.7963C86.9301 72.7183 86.3061 72.6598 85.6821 72.6208C85.6528 71.9773 85.6529 71.3045 85.5944 70.8365Z" fill="url(#paint37_linear_96_2664)"/>
<path d="M131.664 84.8476C131.927 84.9061 132.337 84.9061 132.658 84.9353C132.717 85.5204 132.834 86.1346 133.097 86.6319C132.824 86.4954 132.58 86.3199 132.366 86.1054C132.015 85.7544 131.752 85.3156 131.664 84.8476ZM131.664 83.6191C131.956 83.5606 132.307 83.5021 132.688 83.4728C132.629 83.9408 132.629 84.4381 132.658 84.9353C132.337 84.9061 131.927 84.9061 131.664 84.8476C131.547 84.4381 131.547 84.0286 131.664 83.6191ZM132.366 82.332C132.58 82.137 132.824 81.9713 133.097 81.8348C132.892 82.2443 132.746 82.8586 132.688 83.4728C132.307 83.5021 131.956 83.5606 131.664 83.6191C131.781 83.1218 132.015 82.6831 132.366 82.332ZM132.658 84.9353C133.448 85.0231 134.238 85.0816 134.998 85.0231C134.998 85.6666 134.94 86.3101 134.911 86.8074C134.296 86.9536 133.653 86.8951 133.097 86.6319C132.834 86.1346 132.717 85.5204 132.658 84.9353ZM132.688 83.4728C133.448 83.4143 134.238 83.4143 134.998 83.4436C135.028 83.9408 135.028 84.4966 134.998 85.0231C134.238 85.0816 133.448 85.0231 132.658 84.9353C132.629 84.4381 132.629 83.9408 132.688 83.4728ZM133.097 81.8348C133.653 81.5715 134.296 81.4838 134.911 81.63C134.94 82.1273 134.969 82.8 134.998 83.4436C134.238 83.4143 133.448 83.4143 132.688 83.4728C132.746 82.8586 132.892 82.2443 133.097 81.8348ZM134.998 85.0231C135.554 84.9938 136.344 84.9353 136.841 84.8476C136.724 85.3156 136.49 85.7544 136.139 86.1054C135.788 86.4564 135.379 86.6904 134.911 86.8074C134.94 86.3101 134.998 85.6666 134.998 85.0231ZM134.998 83.4436C135.603 83.4631 136.217 83.5216 136.841 83.6191C136.929 84.0286 136.929 84.4381 136.841 84.8476C136.344 84.9353 135.554 84.9938 134.998 85.0231C135.028 84.4966 135.028 83.9408 134.998 83.4436ZM134.911 81.63C135.379 81.7763 135.788 82.0103 136.139 82.332C136.461 82.6831 136.724 83.1218 136.841 83.6191C136.217 83.5216 135.603 83.4631 134.998 83.4436C134.969 82.8 134.94 82.1273 134.911 81.63Z" fill="url(#paint38_linear_96_2664)"/>
<path d="M0.0658137 92.0433C0.329069 92.1018 0.767827 92.1018 1.08958 92.131C1.11883 92.7453 1.26509 93.3303 1.4991 93.8275C1.22609 93.691 0.982338 93.5253 0.767834 93.3303C0.416827 92.9793 0.182816 92.5113 0.0658137 92.0433ZM0.0658137 90.8147C0.358319 90.7855 0.738576 90.727 1.08958 90.6977C1.06033 91.1365 1.03108 91.6338 1.08958 92.131C0.767827 92.1018 0.329069 92.1018 0.0658137 92.0433C-0.0219379 91.6338 -0.0219379 91.2243 0.0658137 90.8147ZM0.767834 89.557C0.982338 89.3425 1.22609 89.167 1.4991 89.0305C1.29434 89.44 1.14808 90.0542 1.08958 90.6977C0.738576 90.727 0.358319 90.7855 0.0658137 90.8147C0.182816 90.3175 0.446078 89.908 0.767834 89.557ZM1.08958 92.131C1.8501 92.2188 2.63986 92.2773 3.42963 92.2188C3.40038 92.8915 3.37112 93.5058 3.31262 94.0323C2.69836 94.1786 2.05486 94.1201 1.4991 93.8275C1.26509 93.3303 1.11883 92.7453 1.08958 92.131ZM1.08958 90.6977C1.87935 90.6392 2.63987 90.61 3.40038 90.6393C3.42963 91.1365 3.42963 91.6923 3.42963 92.2188C2.63986 92.2773 1.8501 92.2188 1.08958 92.131C1.03108 91.6338 1.06033 91.1365 1.08958 90.6977ZM1.4991 89.0305C2.05486 88.7672 2.69836 88.7087 3.31262 88.855C3.37112 89.323 3.37113 89.9957 3.40038 90.6393C2.63987 90.61 1.87935 90.6392 1.08958 90.6977C1.14808 90.0542 1.29434 89.44 1.4991 89.0305ZM3.42963 92.2188C3.98539 92.1895 4.7459 92.131 5.24316 92.0433C5.15541 92.5113 4.89215 92.9793 4.54114 93.3303C4.21939 93.652 3.78063 93.9153 3.31262 94.0323C3.37112 93.5058 3.40038 92.8915 3.42963 92.2188ZM3.40038 90.6393C4.02439 90.6783 4.63865 90.7367 5.24316 90.8147C5.36016 91.2243 5.36016 91.6338 5.24316 92.0433C4.7459 92.131 3.98539 92.1895 3.42963 92.2188C3.42963 91.6923 3.42963 91.1365 3.40038 90.6393ZM3.31262 88.855C3.78063 88.972 4.21939 89.206 4.54114 89.557C4.89215 89.908 5.12616 90.3175 5.24316 90.8147C4.63865 90.7367 4.02439 90.6783 3.40038 90.6393C3.37113 89.9957 3.37112 89.323 3.31262 88.855Z" fill="url(#paint39_linear_96_2664)"/>
<path d="M115.488 31.3776C115.722 31.4361 116.161 31.4361 116.483 31.4654C116.541 32.0796 116.658 32.6646 116.892 33.1619C116.639 33.0449 116.405 32.8792 116.19 32.6646C115.839 32.3136 115.576 31.8456 115.488 31.3776ZM115.488 30.1491C115.781 30.1199 116.132 30.0614 116.512 30.0321C116.454 30.4709 116.454 30.9681 116.483 31.4654C116.161 31.4361 115.722 31.4361 115.488 31.3776C115.371 30.9681 115.371 30.5586 115.488 30.1491ZM116.19 28.8913C116.405 28.6768 116.639 28.5013 116.892 28.3648C116.688 28.8036 116.571 29.3886 116.512 30.0321C116.132 30.0614 115.781 30.1199 115.488 30.1491C115.605 29.6811 115.839 29.2423 116.19 28.8913ZM116.483 31.4654C117.273 31.5824 118.062 31.6116 118.823 31.5824C118.823 32.2259 118.764 32.8402 118.706 33.3667C118.121 33.5129 117.477 33.4544 116.892 33.1619C116.658 32.6646 116.541 32.0796 116.483 31.4654ZM116.512 30.0321C117.273 29.9736 118.062 29.9443 118.823 29.9736C118.823 30.4709 118.852 31.0266 118.823 31.5824C118.062 31.6116 117.273 31.5824 116.483 31.4654C116.454 30.9681 116.454 30.4709 116.512 30.0321ZM116.892 28.3648C117.477 28.1016 118.121 28.0431 118.706 28.1893C118.764 28.6573 118.794 29.3301 118.823 29.9736C118.062 29.9443 117.273 29.9736 116.512 30.0321C116.571 29.3886 116.688 28.8036 116.892 28.3648ZM118.823 31.5824C119.379 31.5239 120.168 31.4654 120.666 31.3776C120.549 31.8456 120.315 32.3136 119.964 32.6646C119.613 32.9864 119.203 33.2497 118.706 33.3667C118.764 32.8402 118.823 32.2259 118.823 31.5824ZM118.823 29.9736C119.427 30.0126 120.042 30.0711 120.666 30.1491C120.754 30.5586 120.754 30.9681 120.666 31.3776C120.168 31.4654 119.379 31.5239 118.823 31.5824C118.852 31.0266 118.823 30.4709 118.823 29.9736ZM118.706 28.1893C119.203 28.3063 119.613 28.5403 119.964 28.8913C120.285 29.2423 120.549 29.6811 120.666 30.1491C120.042 30.0711 119.427 30.0126 118.823 29.9736C118.794 29.3301 118.764 28.6573 118.706 28.1893Z" fill="url(#paint40_linear_96_2664)"/>
<path d="M4.21938 41.6738C4.48263 41.7323 4.92138 41.7323 5.21389 41.7615C5.27239 42.3758 5.38939 42.9608 5.65264 43.458C5.37964 43.3215 5.13588 43.1558 4.92138 42.9608C4.57037 42.5805 4.33638 42.1418 4.21938 41.6738ZM4.21938 40.4452C4.51188 40.416 4.89214 40.3282 5.24315 40.3282C5.2139 40.767 5.18464 41.2642 5.21389 41.7615C4.92138 41.7323 4.48263 41.7323 4.21938 41.6738C4.13163 41.2643 4.13163 40.8547 4.21938 40.4452ZM4.92138 39.1875C5.13588 38.973 5.37964 38.7975 5.65264 38.661C5.44789 39.0705 5.30165 39.6847 5.24315 40.3282C4.89214 40.3282 4.51188 40.416 4.21938 40.4452C4.33638 39.948 4.59962 39.5092 4.92138 39.1875ZM5.21389 41.7615C6.00365 41.8493 6.79343 41.9078 7.58319 41.8493C7.55394 42.522 7.52468 43.1363 7.46618 43.6628C6.85192 43.809 6.2084 43.7213 5.65264 43.458C5.38939 42.9608 5.27239 42.3758 5.21389 41.7615ZM5.24315 40.3282C6.03291 40.2697 6.79342 40.2405 7.55393 40.2697C7.58318 40.767 7.58319 41.3228 7.58319 41.8493C6.79343 41.9078 6.00365 41.8493 5.21389 41.7615C5.18464 41.2642 5.2139 40.767 5.24315 40.3282ZM5.65264 38.661C6.2084 38.3977 6.85192 38.3392 7.46618 38.4855C7.52468 38.9535 7.52468 39.6262 7.55393 40.2697C6.79342 40.2405 6.03291 40.2697 5.24315 40.3282C5.30165 39.6847 5.44789 39.0705 5.65264 38.661ZM7.58319 41.8493C8.13895 41.82 8.89947 41.7615 9.39673 41.6738C9.30898 42.1418 9.04571 42.5805 8.69471 42.9608C8.37295 43.2825 7.93419 43.5165 7.46618 43.6628C7.52468 43.1363 7.55394 42.522 7.58319 41.8493ZM7.55393 40.2697C8.17794 40.3087 8.79222 40.3672 9.39673 40.4452C9.51373 40.8547 9.51373 41.2643 9.39673 41.6738C8.89947 41.7615 8.13895 41.82 7.58319 41.8493C7.58319 41.3228 7.58318 40.767 7.55393 40.2697ZM7.46618 38.4855C7.93419 38.6025 8.37295 38.8365 8.69471 39.1875C9.04571 39.5092 9.27973 39.948 9.39673 40.4452C8.79222 40.3672 8.17794 40.3087 7.55393 40.2697C7.52468 39.6262 7.52468 38.9535 7.46618 38.4855Z" fill="url(#paint41_linear_96_2664)"/>
<defs>
<linearGradient id="paint0_linear_96_2664" x1="80.5049" y1="38.3392" x2="125.024" y2="97.7471" gradientUnits="userSpaceOnUse">
<stop stop-color="#9BC8EB"/>
<stop offset="1" stop-color="#CFCBFF"/>
</linearGradient>
<linearGradient id="paint1_linear_96_2664" x1="-63.203" y1="134.047" x2="38.8229" y2="57.5276" gradientUnits="userSpaceOnUse">
<stop stop-color="#CFCBFF"/>
<stop offset="1" stop-color="#9BC8EB"/>
</linearGradient>
<linearGradient id="paint2_linear_96_2664" x1="71.6128" y1="85.1694" x2="71.6128" y2="66.332" gradientUnits="userSpaceOnUse">
<stop stop-color="#9882BB"/>
<stop offset="1" stop-color="#9BC8EB"/>
</linearGradient>
<radialGradient id="paint3_radial_96_2664" cx="0" cy="0" r="1" gradientUnits="userSpaceOnUse" gradientTransform="translate(75.3277 115.18) scale(2.45705 2.45705)">
<stop stop-color="#582D88"/>
<stop offset="1" stop-color="#FEFEFE"/>
</radialGradient>
<radialGradient id="paint4_radial_96_2664" cx="0" cy="0" r="1" gradientUnits="userSpaceOnUse" gradientTransform="translate(88.5488 116.526) scale(2.45705 2.45705)">
<stop stop-color="#582D88"/>
<stop offset="1" stop-color="#FEFEFE"/>
</radialGradient>
<radialGradient id="paint5_radial_96_2664" cx="0" cy="0" r="1" gradientUnits="userSpaceOnUse" gradientTransform="translate(32.8851 106.084) scale(2.45704)">
<stop stop-color="#582D88"/>
<stop offset="1" stop-color="#FEFEFE"/>
</radialGradient>
<radialGradient id="paint6_radial_96_2664" cx="0" cy="0" r="1" gradientUnits="userSpaceOnUse" gradientTransform="translate(41.9819 108.804) scale(2.45705)">
<stop stop-color="#582D88"/>
<stop offset="1" stop-color="#FEFEFE"/>
</radialGradient>
<linearGradient id="paint7_linear_96_2664" x1="18.6986" y1="128.519" x2="71.7298" y2="88.738" gradientUnits="userSpaceOnUse">
<stop stop-color="#9BC8EB"/>
<stop offset="1" stop-color="#4E489E"/>
</linearGradient>
<linearGradient id="paint8_linear_96_2664" x1="-25.1773" y1="115.912" x2="26.2452" y2="77.3595" gradientUnits="userSpaceOnUse">
<stop stop-color="#9BC8EB"/>
<stop offset="1" stop-color="#4E489E"/>
</linearGradient>
<linearGradient id="paint9_linear_96_2664" x1="-28.4534" y1="105.557" x2="65.0605" y2="-37.1271" gradientUnits="userSpaceOnUse">
<stop stop-color="#9BC8EB"/>
<stop offset="1" stop-color="#E8DAFF"/>
</linearGradient>
<linearGradient id="paint10_linear_96_2664" x1="64.0953" y1="3.64809" x2="100.746" y2="27.6628" gradientUnits="userSpaceOnUse">
<stop stop-color="#9BC8EB"/>
<stop offset="1" stop-color="#EFE6FF"/>
</linearGradient>
<linearGradient id="paint11_linear_96_2664" x1="-8.53382" y1="75.1364" x2="19.0787" y2="33.0156" gradientUnits="userSpaceOnUse">
<stop stop-color="#9882BB"/>
<stop offset="1" stop-color="#9BC8EB"/>
</linearGradient>
<radialGradient id="paint12_radial_96_2664" cx="0" cy="0" r="1" gradientUnits="userSpaceOnUse" gradientTransform="translate(26.0111 59.3996) scale(2.4863 2.4863)">
<stop stop-color="#582D88"/>
<stop offset="1" stop-color="#FEFEFE"/>
</radialGradient>
<radialGradient id="paint13_radial_96_2664" cx="0" cy="0" r="1" gradientUnits="userSpaceOnUse" gradientTransform="translate(37.2726 58.3174) scale(2.4863)">
<stop stop-color="#582D88"/>
<stop offset="1" stop-color="#FEFEFE"/>
</radialGradient>
<radialGradient id="paint14_radial_96_2664" cx="0" cy="0" r="1" gradientUnits="userSpaceOnUse" gradientTransform="translate(71.9344 53.0815) scale(2.4863)">
<stop stop-color="#582D88"/>
<stop offset="1" stop-color="#FEFEFE"/>
</radialGradient>
<radialGradient id="paint15_radial_96_2664" cx="0" cy="0" r="1" gradientUnits="userSpaceOnUse" gradientTransform="translate(84.7755 49.9224) scale(2.4863 2.4863)">
<stop stop-color="#582D88"/>
<stop offset="1" stop-color="#FEFEFE"/>
</radialGradient>
<linearGradient id="paint16_linear_96_2664" x1="-6.54482" y1="89.8202" x2="28.6728" y2="36.0577" gradientUnits="userSpaceOnUse">
<stop stop-color="#9BC8EB"/>
<stop offset="1" stop-color="#4E489E"/>
</linearGradient>
<linearGradient id="paint17_linear_96_2664" x1="36.9215" y1="92.7745" x2="73.2507" y2="37.3155" gradientUnits="userSpaceOnUse">
<stop stop-color="#9BC8EB"/>
<stop offset="1" stop-color="#4E489E"/>
</linearGradient>
<linearGradient id="paint18_linear_96_2664" x1="32.0075" y1="5.1399" x2="67.9564" y2="28.6866" gradientUnits="userSpaceOnUse">
<stop stop-color="#9BC8EB"/>
<stop offset="1" stop-color="#4E489E"/>
</linearGradient>
<linearGradient id="paint19_linear_96_2664" x1="112.008" y1="21.4616" x2="32.0659" y2="55.2752" gradientUnits="userSpaceOnUse">
<stop stop-color="#9BC8EB"/>
<stop offset="1" stop-color="#4E489E"/>
</linearGradient>
<linearGradient id="paint20_linear_96_2664" x1="60.205" y1="26.8145" x2="78.0771" y2="4.55484" gradientUnits="userSpaceOnUse">
<stop stop-color="#433896"/>
<stop offset="0.5" stop-color="#5F5BA8"/>
<stop offset="1" stop-color="#433896"/>
</linearGradient>
<linearGradient id="paint21_linear_96_2664" x1="97.0899" y1="15.0558" x2="75.2105" y2="48.46" gradientUnits="userSpaceOnUse">
<stop offset="0.1" stop-color="#5E5EA9"/>
<stop offset="0.3" stop-color="#4E489E"/>
<stop offset="0.5" stop-color="#5E5EA9"/>
<stop offset="0.8" stop-color="#4E489E"/>
<stop offset="1" stop-color="#5E5EA9"/>
</linearGradient>
<linearGradient id="paint22_linear_96_2664" x1="53.3312" y1="28.5988" x2="63.0424" y2="-0.856543" gradientUnits="userSpaceOnUse">
<stop stop-color="#2F2772"/>
<stop offset="0.5" stop-color="#5F5BA8"/>
<stop offset="1" stop-color="#362C82"/>
</linearGradient>
<linearGradient id="paint23_linear_96_2664" x1="83.43" y1="1.89311" x2="74.3916" y2="41.8493" gradientUnits="userSpaceOnUse">
<stop offset="0.1" stop-color="#5E5EA9"/>
<stop offset="0.3" stop-color="#4E489E"/>
<stop offset="0.5" stop-color="#5E5EA9"/>
<stop offset="0.8" stop-color="#4E489E"/>
<stop offset="1" stop-color="#5E5EA9"/>
</linearGradient>
<linearGradient id="paint24_linear_96_2664" x1="54.238" y1="28.5403" x2="27.737" y2="14.6171" gradientUnits="userSpaceOnUse">
<stop stop-color="#2F2772"/>
<stop offset="0.5" stop-color="#5F5BA8"/>
<stop offset="1" stop-color="#362C82"/>
</linearGradient>
<linearGradient id="paint25_linear_96_2664" x1="14.3694" y1="32.8986" x2="45.0825" y2="53.0522" gradientUnits="userSpaceOnUse">
<stop offset="0.1" stop-color="#5E5EA9"/>
<stop offset="0.3" stop-color="#4E489E"/>
<stop offset="0.5" stop-color="#5E5EA9"/>
<stop offset="0.8" stop-color="#4E489E"/>
<stop offset="1" stop-color="#5E5EA9"/>
</linearGradient>
<linearGradient id="paint26_linear_96_2664" x1="58.0988" y1="26.9608" x2="39.4077" y2="5.7834" gradientUnits="userSpaceOnUse">
<stop stop-color="#433896"/>
<stop offset="0.5" stop-color="#5F5BA8"/>
<stop offset="1" stop-color="#433896"/>
</linearGradient>
<linearGradient id="paint27_linear_96_2664" x1="20.7167" y1="17.1911" x2="43.8539" y2="49.1619" gradientUnits="userSpaceOnUse">
<stop offset="0.1" stop-color="#5E5EA9"/>
<stop offset="0.3" stop-color="#4E489E"/>
<stop offset="0.5" stop-color="#5E5EA9"/>
<stop offset="0.8" stop-color="#4E489E"/>
<stop offset="1" stop-color="#5E5EA9"/>
</linearGradient>
<radialGradient id="paint28_radial_96_2664" cx="0" cy="0" r="1" gradientUnits="userSpaceOnUse" gradientTransform="translate(60.2927 42.2003) scale(19.0129 19.0128)">
<stop stop-color="#582D88"/>
<stop offset="1" stop-color="#FEFEFE"/>
</radialGradient>
<linearGradient id="paint29_linear_96_2664" x1="58.6547" y1="33.3667" x2="44.2049" y2="22.1637" gradientUnits="userSpaceOnUse">
<stop stop-color="#2A2369"/>
<stop offset="0.5" stop-color="#5F5BA8"/>
<stop offset="1" stop-color="#312978"/>
</linearGradient>
<linearGradient id="paint30_linear_96_2664" x1="42.9765" y1="23.4215" x2="63.3934" y2="38.0468" gradientUnits="userSpaceOnUse">
<stop offset="0.1" stop-color="#5E5EA9"/>
<stop offset="0.3" stop-color="#4E489E"/>
<stop offset="0.5" stop-color="#5E5EA9"/>
<stop offset="0.8" stop-color="#4E489E"/>
<stop offset="1" stop-color="#5E5EA9"/>
</linearGradient>
<linearGradient id="paint31_linear_96_2664" x1="67.547" y1="18.9754" x2="56.7828" y2="33.8932" gradientUnits="userSpaceOnUse">
<stop stop-color="#433896"/>
<stop offset="0.5" stop-color="#5F5BA8"/>
<stop offset="1" stop-color="#150D3D"/>
</linearGradient>
<linearGradient id="paint32_linear_96_2664" x1="58.0699" y1="35.0924" x2="72.0809" y2="14.0905" gradientUnits="userSpaceOnUse">
<stop offset="0.1" stop-color="#5E5EA9"/>
<stop offset="0.3" stop-color="#4E489E"/>
<stop offset="0.5" stop-color="#5E5EA9"/>
<stop offset="0.8" stop-color="#4E489E"/>
<stop offset="1" stop-color="#5E5EA9"/>
</linearGradient>
<radialGradient id="paint33_radial_96_2664" cx="0" cy="0" r="1" gradientUnits="userSpaceOnUse" gradientTransform="translate(51.7222 38.9827) scale(13.1335 13.1335)">
<stop stop-color="#582D88"/>
<stop offset="1" stop-color="#FEFEFE"/>
</radialGradient>
<radialGradient id="paint34_radial_96_2664" cx="0" cy="0" r="1" gradientUnits="userSpaceOnUse" gradientTransform="translate(67.8101 34.5659) scale(13.1335 13.1335)">
<stop stop-color="#582D88"/>
<stop offset="1" stop-color="#FEFEFE"/>
</radialGradient>
<linearGradient id="paint35_linear_96_2664" x1="68.8631" y1="32.7523" x2="46.0477" y2="36.4671" gradientUnits="userSpaceOnUse">
<stop stop-color="#433896"/>
<stop offset="0.5" stop-color="#5F5BA8"/>
<stop offset="1" stop-color="#433896"/>
</linearGradient>
<linearGradient id="paint36_linear_96_2664" x1="46.8961" y1="37.3448" x2="76.6146" y2="31.3192" gradientUnits="userSpaceOnUse">
<stop offset="0.1" stop-color="#5E5EA9"/>
<stop offset="0.3" stop-color="#4E489E"/>
<stop offset="0.5" stop-color="#5E5EA9"/>
<stop offset="0.8" stop-color="#4E489E"/>
<stop offset="1" stop-color="#5E5EA9"/>
</linearGradient>
<linearGradient id="paint37_linear_96_2664" x1="83.4006" y1="72.6793" x2="85.7114" y2="74.2003" gradientUnits="userSpaceOnUse">
<stop stop-color="#D4FFFF"/>
<stop offset="1" stop-color="#477EFF"/>
</linearGradient>
<linearGradient id="paint38_linear_96_2664" x1="132.688" y1="83.4728" x2="134.998" y2="85.0231" gradientUnits="userSpaceOnUse">
<stop stop-color="#D4FFFF"/>
<stop offset="1" stop-color="#477EFF"/>
</linearGradient>
<linearGradient id="paint39_linear_96_2664" x1="1.11883" y1="90.6977" x2="3.42963" y2="92.2188" gradientUnits="userSpaceOnUse">
<stop stop-color="#D4FFFF"/>
<stop offset="1" stop-color="#477EFF"/>
</linearGradient>
<linearGradient id="paint40_linear_96_2664" x1="116.512" y1="30.0321" x2="118.823" y2="31.5531" gradientUnits="userSpaceOnUse">
<stop stop-color="#D4FFFF"/>
<stop offset="1" stop-color="#477EFF"/>
</linearGradient>
<linearGradient id="paint41_linear_96_2664" x1="5.2724" y1="40.3282" x2="7.58319" y2="41.8493" gradientUnits="userSpaceOnUse">
<stop stop-color="#D4FFFF"/>
<stop offset="1" stop-color="#477EFF"/>
</linearGradient>
</defs>
</svg>
