<svg width="200" height="205" viewBox="0 0 200 205" fill="none" xmlns="http://www.w3.org/2000/svg">
<path d="M2.79794 204.074H1.10938L7.43194 171.242L8.84119 171.509L2.79794 204.074Z" fill="#B5B5B5"/>
<path d="M126.837 11.8834V45.3371V191.962C126.837 192.368 126.816 192.77 126.773 193.168C126.215 198.767 121.784 203.211 116.21 203.782C115.812 203.816 115.41 203.833 115.004 203.833H27.1866C27.0004 203.833 26.8099 203.829 26.6153 203.82C26.556 203.82 26.4925 203.816 26.4248 203.807C26.2979 203.799 26.1751 203.791 26.0567 203.782C25.9805 203.774 25.9043 203.765 25.8281 203.757C25.7181 203.748 25.6081 203.736 25.498 203.719C25.4134 203.702 25.333 203.689 25.2568 203.68C25.1552 203.664 25.0537 203.647 24.9521 203.63C24.8675 203.613 24.7828 203.596 24.6982 203.579C24.6051 203.554 24.5162 203.532 24.4316 203.515C24.3385 203.49 24.2496 203.465 24.165 203.439C24.0803 203.422 23.9957 203.401 23.911 203.376C23.6741 203.308 23.4455 203.232 23.2255 203.147C23.2001 203.147 23.1789 203.143 23.162 203.135C18.6042 201.471 15.354 197.104 15.354 191.962V158.508V11.8834C15.354 11.4771 15.3709 11.0751 15.4048 10.6773C15.938 5.48463 19.7976 1.26959 24.7998 0.241222C24.9944 0.207366 25.1891 0.173512 25.3838 0.139656C25.7731 0.0804082 26.1709 0.0423212 26.5772 0.0253934C26.7803 0.00846549 26.9835 0 27.1866 0H115.004C115.19 0 115.381 0.00846549 115.576 0.0253934C115.635 0.0253934 115.698 0.0296261 115.766 0.0380901C115.884 0.0380901 116.007 0.0465517 116.134 0.0634796C116.21 0.0719435 116.286 0.080409 116.363 0.0888729C116.473 0.0973369 116.578 0.110031 116.68 0.126959C116.765 0.135423 116.849 0.148121 116.934 0.165049C117.036 0.181977 117.133 0.198904 117.226 0.215832C117.319 0.23276 117.408 0.249687 117.493 0.266615C117.586 0.292007 117.675 0.313167 117.759 0.330094C117.852 0.355486 117.941 0.376646 118.026 0.393574C118.11 0.418966 118.195 0.444358 118.28 0.46975C118.525 0.537462 118.766 0.613636 119.003 0.698275C119.012 0.706739 119.02 0.710972 119.029 0.710972C123.587 2.36144 126.837 6.74153 126.837 11.8834Z" fill="#D3D3D3"/>
<path d="M121.098 187.646H21.0925V16.2H121.098V187.646Z" fill="#F5F5F5"/>
<path d="M92.4693 10.8043H49.8872C49.8237 10.8043 49.7729 10.7662 49.7729 10.7027V8.77295C49.7729 8.70947 49.8237 8.65869 49.8872 8.65869H92.4693C92.5201 8.65869 92.5709 8.70947 92.5709 8.77295V10.7027C92.5709 10.7662 92.5201 10.8043 92.4693 10.8043Z" fill="#8E8E8E"/>
<g opacity="0.3">
<path d="M75.9516 195.911C75.9516 198.628 73.7553 200.837 71.0383 200.837C68.3214 200.837 66.125 198.628 66.125 195.911C66.125 193.181 68.3214 190.972 71.0383 190.972C73.7553 190.972 75.9516 193.181 75.9516 195.911Z" fill="white"/>
</g>
<path d="M43.4629 171.509L44.8721 171.242L50.9662 203.655L49.5569 203.922L43.4629 171.509Z" fill="#B5B5B5"/>
<path d="M33.8394 204.074H32.1509L38.4608 171.242L39.87 171.509L33.8394 204.074Z" fill="#B5B5B5"/>
<path d="M12.155 171.661L13.5643 171.382L19.6329 204.087L18.2491 204.074L12.155 171.661Z" fill="#B5B5B5"/>
<path d="M45.0625 139.68C48.7189 145.965 47.5635 149.304 55.7524 165.339C61.072 175.749 50.6994 182.021 50.6994 182.021C33.5346 192.381 13.1069 185.462 6.84777 179.863C0.588685 174.264 -3.57558 154.103 4.34667 140.607C11.596 128.254 18.82 127.632 24.4062 127.023C36.2515 125.753 41.3933 133.409 45.0625 139.68Z" fill="#E4E4E4"/>
<path d="M4.34667 140.607C9.29808 132.177 14.2241 129.206 18.6423 127.988C16.9283 129.752 15.2017 132.038 13.475 134.983C5.55279 148.479 9.71705 168.627 15.9761 174.239C21.5242 179.203 38.2194 185.195 53.8988 179.279C52.2864 181.069 50.6994 182.021 50.6994 182.021C33.5346 192.381 13.1069 185.462 6.84777 179.863C0.588685 174.264 -3.57558 154.103 4.34667 140.607Z" fill="#D6D6D6"/>
<path d="M42.32 147.539L43.7546 151.856L39.3872 150.129L42.32 147.539Z" fill="#F79C8D"/>
<path d="M37.8001 134.844C37.8067 134.843 37.8117 134.842 37.8154 134.841C38.0335 134.856 38.7924 135.079 39.9403 137.249C40.6748 138.643 41.5881 141.459 42.3207 143.941C42.6861 145.179 43.0052 146.33 43.2329 147.17C43.3468 147.591 43.4378 147.934 43.5003 148.171C43.5262 148.27 43.5472 148.35 43.563 148.411L37.3067 150.74L36.5506 149.111L35.1818 135.575L35.4872 135.487C35.743 135.413 36.0848 135.315 36.4289 135.218C36.7731 135.12 37.1192 135.023 37.3838 134.951C37.5163 134.916 37.6274 134.886 37.7075 134.866C37.7477 134.856 37.7787 134.849 37.8001 134.844Z" fill="#F3F3F3" stroke="black" stroke-width="0.3"/>
<path d="M36.7729 167.789C36.7664 167.749 36.759 167.703 36.7507 167.651C36.7186 167.449 36.6735 167.157 36.6215 166.801C36.5176 166.087 36.386 165.112 36.2754 164.064C36.1649 163.017 36.0752 161.896 36.0554 160.891C36.0357 159.89 36.0848 158.989 36.26 158.39M36.7729 167.789L36.404 158.432M36.7729 167.789L17.8352 167.54L17.839 167.51C17.8556 167.382 17.8797 167.193 17.9102 166.951C17.971 166.469 18.057 165.776 18.1575 164.936C18.3585 163.256 18.6177 160.986 18.8504 158.628C19.083 156.27 19.2892 153.823 19.384 151.787C19.4314 150.769 19.451 149.853 19.432 149.101C19.413 148.354 19.3557 147.755 19.243 147.382L19.2429 147.381C19.032 146.693 18.8695 145.564 18.7457 144.246C18.6223 142.932 18.5383 141.443 18.4812 140.039C18.4241 138.636 18.394 137.321 18.3782 136.357C18.3702 135.875 18.3659 135.48 18.3635 135.206C18.3624 135.079 18.3617 134.978 18.3613 134.906M36.7729 167.789L18.3613 134.906M36.26 158.39C36.26 158.39 36.26 158.39 36.26 158.39L36.404 158.432M36.26 158.39C36.2599 158.39 36.2599 158.39 36.2599 158.39L36.404 158.432M36.26 158.39C37.7458 153.282 38.098 147.363 38.0774 142.715C38.0671 140.393 37.9637 138.39 37.8629 136.969C37.8125 136.258 37.7628 135.692 37.7257 135.305C37.7071 135.111 37.6917 134.962 37.681 134.861C37.6788 134.84 37.6768 134.821 37.6749 134.805M36.404 158.432C39.3875 148.174 37.8132 134.691 37.8132 134.691M37.6749 134.805C37.7062 134.814 37.737 134.824 37.7673 134.834L37.8132 134.691M37.6749 134.805C36.6179 134.478 34.9923 134.182 33.3893 133.967C31.7398 133.745 30.1287 133.609 29.2054 133.609C27.2332 133.609 24.5249 133.837 22.5658 134.179L22.5656 134.179C20.4707 134.54 19.3884 134.728 18.8299 134.824L18.3613 134.906M37.6749 134.805C37.6724 134.781 37.6702 134.762 37.6686 134.747L37.6653 134.718L37.6645 134.711L37.6643 134.709L37.6642 134.708C37.6642 134.708 37.6642 134.708 37.8132 134.691M37.8132 134.691L18.3613 134.906" fill="#F3F3F3" stroke="black" stroke-width="0.3"/>
<path d="M26.9584 192.991C26.9584 192.991 27.3901 197.904 28.1772 199.275C28.9644 200.634 28.1392 202.957 28.0884 203.274C28.0503 203.592 26.4379 204.049 23.886 203.769C21.3215 203.503 21.3595 202.906 21.5754 201.954C21.7785 201.002 23.137 199.77 23.2258 198.869C23.302 197.955 22.4387 194.679 22.4387 194.679L26.9584 192.991Z" fill="#F3FCFF"/>
<path d="M34.7791 163.879L34.772 164.029L34.7797 164.029L34.7874 164.029L34.7791 163.879ZM34.7791 163.879C34.7874 164.029 34.7874 164.029 34.7875 164.029L34.788 164.029L34.7897 164.028L34.7969 164.028L34.8253 164.027L34.9368 164.021C35.0347 164.016 35.1788 164.009 35.3634 164.001C35.7324 163.984 36.2631 163.962 36.9092 163.942C38.2017 163.901 39.9554 163.865 41.8015 163.886C43.6481 163.907 45.5842 163.983 47.2423 164.167C48.0714 164.259 48.8284 164.377 49.4686 164.528C50.1111 164.679 50.626 164.86 50.9775 165.073C51.6853 165.503 51.9947 166.035 52.0769 166.587C52.1603 167.147 52.0121 167.748 51.7654 168.31C51.5194 168.87 51.1815 169.378 50.9033 169.747C50.7645 169.931 50.6414 170.08 50.5531 170.182C50.509 170.234 50.4737 170.273 50.4496 170.3L50.4336 170.317L50.4318 170.318C50.4111 170.327 50.3799 170.34 50.3384 170.357C50.2554 170.392 50.1309 170.442 49.9657 170.507C49.6355 170.638 49.1429 170.825 48.4948 171.053C47.1987 171.51 45.2807 172.13 42.7966 172.783C37.8282 174.088 30.5951 175.524 21.5414 176.044L21.5411 176.044C20.5459 176.103 19.7596 175.49 19.1456 174.46C18.5317 173.429 18.1113 172.012 17.8476 170.545C17.5843 169.079 17.4795 167.576 17.4901 166.381C17.4954 165.783 17.5296 165.266 17.5864 164.871C17.6148 164.673 17.6485 164.509 17.686 164.382C17.7243 164.253 17.7623 164.177 17.7917 164.141C17.7984 164.134 17.8181 164.117 17.8629 164.096C17.9071 164.075 17.9671 164.053 18.0442 164.032C18.1982 163.988 18.4069 163.95 18.6654 163.916C19.1815 163.848 19.879 163.801 20.698 163.772C22.3352 163.712 24.4443 163.721 26.5304 163.759C28.616 163.797 30.6764 163.864 32.2156 163.922C32.9852 163.951 33.6244 163.978 34.0711 163.997C34.2945 164.007 34.4698 164.015 34.5892 164.02L34.7254 164.026L34.7603 164.028L34.7691 164.028L34.7713 164.029L34.7718 164.029C34.7719 164.029 34.772 164.029 34.7791 163.879Z" fill="#B3B3B3" stroke="black" stroke-width="0.3"/>
<path d="M23.5684 204.15C20.9276 203.871 21.2577 202.576 21.4609 201.598C21.6005 200.976 22.3496 200.253 22.8066 199.567C23.0478 199.758 23.4287 200.088 24.5714 200.43C25.7521 200.773 27.3898 200.088 28.4309 199.643C28.7991 201.027 28.8118 202.779 28.7737 203.046C28.7356 203.376 26.1964 204.43 23.5684 204.15Z" fill="#101010"/>
<path d="M24.867 173.42L24.867 173.42C25.1336 175.433 25.9239 181.447 26.6476 186.959C27.0094 189.715 27.3546 192.345 27.6093 194.286L27.9143 196.61L27.9986 197.253L28.0086 197.329L22.1792 198.057L22.1304 197.885C22.0755 197.693 21.9951 197.41 21.8929 197.049C21.6886 196.326 21.397 195.289 21.0484 194.032C20.351 191.518 19.4253 188.125 18.5114 184.607C17.5975 181.088 16.6959 177.447 16.0467 174.435C15.722 172.93 15.4609 171.583 15.2928 170.49C15.124 169.391 15.0516 168.562 15.0972 168.083C15.2839 166.122 16.0647 165.078 16.7822 164.523C17.1431 164.243 17.4921 164.084 17.7499 163.995C17.8787 163.95 17.9845 163.923 18.0571 163.908C18.0934 163.9 18.1214 163.895 18.1397 163.892L18.1599 163.889L18.1643 163.888L18.1647 163.888L18.1647 163.888L18.1737 163.887L18.1738 163.887L18.1739 163.887L18.174 163.887L18.1757 163.886L18.1851 163.885C18.1939 163.884 18.2076 163.882 18.2261 163.88C18.263 163.875 18.3186 163.87 18.3907 163.867C18.535 163.861 18.7447 163.864 19.0018 163.899C19.5153 163.97 20.2184 164.172 20.9667 164.698C22.4609 165.749 24.1655 168.118 24.867 173.42Z" fill="#B3B3B3" stroke="black" stroke-width="0.3"/>
<path d="M40.3524 161.06C40.1874 161.454 38.5115 159.93 38.5115 159.93M40.3524 161.06C40.4948 160.681 39.6723 159.835 39.2739 159.426C39.2461 159.397 39.2203 159.37 39.1971 159.346C38.9178 159.054 35.5915 157.696 35.4645 157.671C35.1471 157.607 34.5377 157.658 33.8775 157.747L38.5115 159.93M40.3524 161.06L40.2141 161.002C40.217 160.995 40.2255 160.984 40.2385 160.978C40.2433 160.976 40.2462 160.975 40.2461 160.975C40.246 160.975 40.2429 160.976 40.2356 160.975C40.2306 160.975 40.2249 160.974 40.2185 160.973C40.2178 160.987 40.2154 160.999 40.212 161.008L40.3524 161.06ZM38.5115 159.93L38.2765 159.798M38.5115 159.93L38.2765 159.798M38.2765 159.798C38.1069 159.65 37.9467 159.505 37.8037 159.366L37.699 159.473L37.6255 159.604L38.2765 159.798ZM35.8328 160.97C35.4742 160.84 35.1269 160.96 34.8393 161.094C34.7661 161.128 34.6944 161.165 34.6259 161.2L34.6003 161.213C34.5405 161.243 34.4836 161.272 34.4278 161.299C34.2991 161.361 34.1903 161.404 34.0957 161.42C34.0408 161.428 33.9834 161.437 33.9239 161.447C33.7887 161.469 33.643 161.493 33.4942 161.508C33.2788 161.53 33.0844 161.53 32.9426 161.488L32.9407 161.487L31.1887 160.992L31.1624 160.985L31.1352 160.987C30.7976 161.016 30.6189 161.135 30.4555 161.253C30.4483 161.258 30.4412 161.263 30.4341 161.268C30.2901 161.373 30.1569 161.469 29.8985 161.523L29.8971 161.523C29.6065 161.587 29.2374 161.65 28.8364 161.719C28.7615 161.732 28.6854 161.745 28.6085 161.758C28.123 161.843 27.6077 161.935 27.1519 162.044L27.1511 162.045C25.7714 162.383 24.643 162.671 23.6976 162.913C22.8802 163.121 22.1996 163.295 21.6116 163.436C20.3484 163.739 19.5441 163.881 18.7821 163.881C18.2642 163.881 17.7785 163.526 17.3337 162.824C16.891 162.125 16.5109 161.115 16.1981 159.883C15.5729 157.421 15.2255 154.114 15.1598 150.752C15.0941 147.389 15.31 143.981 15.807 141.317C16.0555 139.984 16.3732 138.844 16.7576 137.991C17.1455 137.131 17.5862 136.596 18.0603 136.418L35.8328 160.97Z" fill="#DCDCDC" stroke="black" stroke-width="0.3"/>
<path d="M21.6964 151.526C19.6814 151.684 16.8397 151.805 14.7239 151.401C14.563 148.011 14.5006 144.253 14.944 141.157C15.1683 139.591 15.5208 138.203 16.0499 137.121C16.5787 136.04 17.2768 135.277 18.187 134.933C18.4922 134.82 18.8833 134.894 19.3124 135.328C19.7446 135.764 20.1968 136.551 20.5926 137.808C21.3783 140.305 21.9258 144.603 21.6964 151.526Z" fill="#F3F3F3" stroke="black" stroke-width="0.3"/>
<path d="M30.1956 162.977L29.7893 163.041L35.6675 148.58H36.0611L30.1956 162.977Z" fill="#F79C8D"/>
<path d="M44.834 197.193C44.834 197.193 44.3008 198.907 45.2529 200.037C46.2051 201.167 50.1663 202.271 50.6868 202.893C51.2073 203.503 51.1692 204.023 51.1692 204.023L40.0349 203.719L40.1619 200.354L40.6697 197.942L44.834 197.193Z" fill="#F3FCFF"/>
<path d="M51.1692 202.208C51.4866 202.386 52.058 202.64 52.5404 203.02C53.2514 203.566 52.807 204.214 51.931 204.226L39.4128 203.858C39.4128 203.858 39.5652 200.71 39.9588 200.456C40.365 200.202 40.3143 200.392 41.6981 201.078C43.082 201.763 45.9385 200.595 45.9385 200.595C45.9385 200.595 50.1917 201.649 51.1692 202.208Z" fill="#101010"/>
<path d="M50.6043 164.424L50.6043 164.424C52.2093 165.087 53.2196 166.226 53.7068 167.612C54.1953 169.002 54.1612 170.651 53.6539 172.329C53.3842 173.214 52.7265 175.215 51.8957 177.742C51.1242 180.09 50.2032 182.892 49.3048 185.676C48.3724 188.566 47.4646 191.437 46.7747 193.758C46.4298 194.918 46.1391 195.942 45.9269 196.762C45.7403 197.484 45.6122 198.057 45.5633 198.428L40.4107 198.464L40.4119 198.445L40.4437 197.935L40.5592 196.085L40.926 190.21C41.2037 185.764 41.5115 180.838 41.6322 178.921C41.8724 175.254 43.062 170.221 44.538 167.105C44.9634 166.21 45.6521 165.194 46.6449 164.576C47.6288 163.963 48.9267 163.731 50.6043 164.424Z" fill="#B3B3B3" stroke="black" stroke-width="0.3"/>
<path d="M54.3303 150.269L48.6807 162.876C48.3633 163.6 47.6523 164.057 46.8651 164.057H18.2993C18.02 164.057 17.7915 163.828 17.7915 163.549C17.7915 163.269 18.02 163.041 18.2993 163.041H28.3418L33.9407 149.329C34.1311 148.872 34.5628 148.58 35.0452 148.58H53.2512C54.1018 148.58 54.6858 149.482 54.3303 150.269Z" fill="#3422F2"/>
<path d="M43.4504 156.566C43.3234 157.188 42.7902 157.594 42.2443 157.493C41.7111 157.379 41.381 156.795 41.4952 156.185C41.6222 155.563 42.1554 155.157 42.7013 155.258C43.2346 155.373 43.5647 155.957 43.4504 156.566Z" fill="white"/>
<path d="M33.4713 128.241C33.4713 128.343 32.1763 125.499 32.1763 125.499C32.1763 125.499 28.4437 130.311 28.3422 130.438C28.2406 130.565 23.9494 131.415 23.4669 123.696C23.0353 116.879 25.1682 117.945 26.3616 116.637C27.3265 115.596 29.0785 115.482 30.0942 115.647C30.5767 115.723 31.3384 116.053 31.9224 116.333C32.4429 116.587 32.9889 116.79 33.5348 116.98C40.124 119.202 33.4713 128.14 33.4713 128.241Z" fill="#4E4E4E"/>
<path d="M26.0187 133.611L26.3658 127.029L30.1298 131.077L30.5042 133.785L30.5039 133.785L30.5059 133.795L30.506 133.795L30.5061 133.795L30.5065 133.797L30.5081 133.805L30.5147 133.838C30.5203 133.867 30.5286 133.909 30.5387 133.964C30.559 134.073 30.5868 134.23 30.6169 134.421C30.6772 134.803 30.7464 135.319 30.7825 135.858C30.8187 136.399 30.8211 136.956 30.7509 137.422C30.6792 137.897 30.5379 138.235 30.3239 138.391C30.2506 138.443 30.1411 138.455 29.967 138.384C29.7927 138.312 29.5841 138.168 29.3508 137.962C28.8859 137.551 28.3583 136.929 27.8582 136.276C27.3595 135.624 26.8933 134.948 26.5516 134.434C26.3808 134.177 26.2412 133.961 26.1445 133.809C26.0961 133.734 26.0584 133.674 26.0328 133.633L26.0187 133.611Z" fill="#DCDCDC" stroke="black" stroke-width="0.3"/>
<path d="M29.904 131.903L29.9029 131.902C29.5739 131.847 29.0994 131.642 28.5781 131.286C28.0595 130.931 27.5044 130.433 27.0128 129.803C26.0304 128.544 25.304 126.762 25.621 124.543L25.6211 124.543C26.0085 121.793 27.7898 119.578 30.0797 119.198C32.2455 118.857 34.1948 120.598 34.1463 122.766C34.121 123.752 34.0451 124.977 33.8433 126.289C33.5994 127.858 32.9425 129.333 32.171 130.382C31.7852 130.907 31.3746 131.319 30.9784 131.584C30.5801 131.85 30.2126 131.957 29.904 131.903Z" fill="#DCDCDC" stroke="black" stroke-width="0.3"/>
<path d="M26.4631 125.068C26.3488 125.766 25.7775 126.248 25.2062 126.147C24.6349 126.058 24.2794 125.41 24.3936 124.699C24.5206 124.001 25.0792 123.519 25.6505 123.62C26.2219 123.709 26.59 124.369 26.4631 125.068Z" fill="#1B1B1B"/>
<path d="M25.1042 122.262C25.1042 122.262 25.7263 120.129 25.8025 119.926C25.8787 119.735 28.0497 117.945 28.0497 117.945C28.0497 117.945 30.8682 117.97 31.0967 117.97C31.3379 117.97 36.848 121.398 33.9152 120.395C30.9825 119.405 28.6718 121.817 28.037 122.935C27.3895 124.052 25.6502 123.62 25.6502 123.62L25.1042 122.262Z" fill="#4E4E4E"/>
<path d="M98.5016 124.202L95.3276 119.593L96.2798 118.946L99.4411 123.555L98.5016 124.202ZM92.179 114.985L89.005 110.376L89.9572 109.729L93.1185 114.337L92.179 114.985ZM85.8565 105.768L82.6825 101.159L83.6347 100.511L86.796 105.12L85.8565 105.768ZM79.5339 96.5504L76.3599 91.9417L77.3121 91.2816L80.4734 95.8902L79.5339 96.5504ZM73.1986 87.3331L70.0374 82.7245L70.9895 82.077L74.1508 86.6856L73.1986 87.3331Z" fill="#3422F2"/>
<path d="M32.2036 98.4801C30.5278 99.3181 24.002 102.644 20.9169 95.6997C17.5906 88.2472 25.3478 84.9209 25.3478 84.9209C25.3478 84.9209 33.8795 97.6422 32.2036 98.4801Z" fill="#3422F2"/>
<path d="M39.5291 96.982C43.6044 100.727 46.6134 108.916 46.9816 110.579C47.3497 112.23 43.4902 114.363 41.827 114.959C40.1639 115.569 39.3005 114.972 38.5134 110.275C37.6628 105.234 34.1968 99.3942 34.1968 99.3942C34.1968 99.3942 35.4664 93.2367 39.5291 96.982Z" fill="#CECECE"/>
<path d="M46.1309 64.1503L48.7082 71.4378L53.9008 83.0291L60.5915 92.6399L61.7088 94.8744L39.4782 96.3598L34.5776 95.395L29.8547 84.9081L31.3656 80.4773C34.9077 76.3638 45.6611 63.0458 45.6611 63.0458L46.1309 64.1503Z" fill="#CECECE"/>
<path d="M31.3653 80.4774C31.3653 80.4774 32.089 90.2406 39.478 96.36C39.478 96.36 39.9605 96.9821 39.4272 97.5915L35.7073 99.6863C35.7073 99.6863 34.0442 100.829 31.7716 98.5945C29.499 96.36 25.1443 91.1293 25.0174 84.1085C25.0174 84.1085 24.9285 82.2295 27.0233 81.3154L29.7784 79.995C29.7784 79.995 31.0099 79.4491 31.3653 80.4774Z" fill="#F3F3F3"/>
<path d="M45.6609 63.0458C45.6609 63.0458 48.454 59.5545 50.4854 59.072C52.504 58.5769 55.2336 60.7098 57.1253 62.5507C59.017 64.3789 64.7429 72.0218 66.6092 77.7223C68.4882 83.4101 70.6465 91.6624 68.0819 93.4017C65.5173 95.1411 61.7086 94.8745 61.7086 94.8745C61.7086 94.8745 56.097 92.1702 50.1553 80.6678C44.2136 69.1653 45.6609 63.0458 45.6609 63.0458Z" fill="#B1B1B1"/>
<path d="M54.2693 81.112C44.9632 64.9882 48.8355 59.9733 48.8355 59.9733C48.8355 59.9733 56.1356 60.9255 63.5627 78.2046C68.2856 89.1739 66.1654 94.2649 66.1654 94.2649C66.1654 94.2649 61.9377 94.3919 54.2693 81.112Z" fill="#CECECE"/>
<path d="M58.4332 76.6304C61.0232 80.7185 58.2301 83.3592 56.4019 84.6034C55.7163 83.5624 55.0053 82.3943 54.269 81.1121C52.7835 78.5348 51.6282 76.2495 50.7522 74.2182C52.5931 73.4945 56.0337 72.8343 58.4332 76.6304Z" fill="#F3F3F3"/>
<path fill-rule="evenodd" clip-rule="evenodd" d="M41.5097 115.15C40.9765 115.29 40.5702 115.264 40.2274 115.061C39.453 114.604 38.9197 113.22 38.4246 110.287C37.7517 106.301 35.4665 101.832 34.4762 100.055C33.6002 100.029 32.7114 99.5975 31.8227 98.7595C29.0423 100.105 26.6428 100.435 24.7003 99.7371C23.0499 99.1277 21.7549 97.7819 20.8408 95.7379C19.5839 92.9067 19.7362 90.3548 21.2978 88.1204C22.5166 86.4064 24.2306 85.3907 24.9669 85.0099C24.95 84.7136 24.9373 84.4174 24.9288 84.1211C24.9288 84.0957 24.8781 82.166 26.9856 81.2392L29.7406 79.9188C29.766 79.9061 30.4008 79.6268 30.9213 79.8553C31.1329 79.9399 31.2895 80.0923 31.3911 80.3124C34.9713 76.1481 45.4962 63.1221 45.5978 62.9951C45.712 62.8555 48.429 59.4657 50.4603 58.9832C52.5297 58.4881 55.2594 60.621 57.1891 62.4873C59.1062 64.3536 64.8067 71.9838 66.6857 77.697C68.7424 83.9434 70.6722 91.7514 68.1203 93.478C65.6192 95.1793 61.8866 94.9761 61.7089 94.9634L39.618 96.4362C39.6942 96.5758 39.7831 96.8043 39.7577 97.0837C41.8906 99.1277 43.6553 102.302 44.7599 104.612C46.0294 107.266 46.8674 109.691 47.0578 110.567C47.2736 111.519 46.1691 112.535 45.2169 113.233C44.0743 114.045 42.7031 114.731 41.8525 115.036C41.734 115.078 41.6197 115.116 41.5097 115.15ZM31.8481 98.5691L31.8989 98.6072C32.7749 99.4578 33.6636 99.8895 34.5269 99.9022H34.5777L34.6031 99.9402C35.5807 101.692 37.9041 106.212 38.5896 110.262C39.0721 113.106 39.5926 114.502 40.3163 114.921C40.6845 115.137 41.1288 115.125 41.8017 114.883C43.3887 114.312 47.2482 112.179 46.9055 110.592C46.715 109.729 45.8771 107.329 44.6202 104.689C43.5156 102.378 41.7509 99.1912 39.6053 97.1725L39.5799 97.1344V97.0964C39.6434 96.7282 39.4149 96.4235 39.4149 96.4108L39.3133 96.2965L39.4657 96.2838L61.7089 94.7984H61.7216C61.7597 94.7984 65.5177 95.0396 68.0314 93.3384C69.1487 92.5893 69.4407 90.4691 68.9329 87.0539C68.552 84.5528 67.7395 81.4169 66.5333 77.7478C64.667 72.06 58.9793 64.4552 57.0749 62.6016C55.1705 60.7607 52.4917 58.6658 50.4984 59.1483C50.4815 59.1483 50.4603 59.1525 50.4349 59.161C48.4671 59.6942 45.7628 63.0586 45.7247 63.0967C45.6232 63.2364 34.9205 76.4655 31.4292 80.5282L31.3403 80.6298L31.2895 80.5028C31.2048 80.2574 31.061 80.0923 30.8578 80.0077C30.4135 79.8045 29.8168 80.0711 29.8041 80.0711L27.0618 81.3915C25.0431 82.2675 25.0939 84.0323 25.0939 84.1084C25.1024 84.4216 25.1193 84.7348 25.1447 85.0479V85.1114L25.0939 85.1368C23.9005 85.7462 18.0604 89.1106 20.9804 95.6617C21.8818 97.6804 23.1514 99.0007 24.7638 99.5848C26.6682 100.27 29.0423 99.9402 31.7973 98.5945L31.8481 98.5691Z" fill="#1D1D1B"/>
<path d="M31.7847 98.7213C28.3822 95.4966 26.7064 91.9544 25.9065 89.5549C25.0432 86.9522 24.9797 85.0859 24.9797 85.0605H25.1448C25.1448 85.0732 25.2083 86.9269 26.0716 89.5168C26.8587 91.891 28.5219 95.4077 31.899 98.6071L31.7847 98.7213Z" fill="#1D1D1B"/>
<path d="M39.4144 96.4232C37.6497 94.887 36.1135 93.0842 34.8693 91.0783C33.8663 89.4786 33.0538 87.7392 32.4317 85.911C31.3906 82.8132 31.2891 80.5026 31.2891 80.4772L31.4541 80.4645C31.4541 80.4899 31.543 82.7878 32.5841 85.8729C33.5489 88.7168 35.5295 92.8303 39.5287 96.309L39.4144 96.4232Z" fill="#1D1D1B"/>
<path d="M35.1616 99.9147C34.8189 100.004 34.5776 100.054 34.5396 100.054L34.5142 99.902C34.5522 99.8893 38.2721 99.1529 39.5925 97.0581L39.7322 97.147C38.6911 98.7974 36.3043 99.61 35.1616 99.9147Z" fill="#1D1D1B"/>
<path d="M66.1271 94.3667C65.8859 94.4302 65.1115 94.4937 63.6007 93.3511C61.9629 92.1069 59.0682 89.1106 54.6246 81.8866C52.4283 78.3191 50.7524 74.9547 49.6479 71.8696C48.7591 69.4066 48.2259 67.1086 48.0736 65.0646C47.8069 61.5605 48.7211 59.9989 48.7591 59.9354L48.8988 60.0243C48.8988 60.037 47.972 61.6113 48.2386 65.0773C48.4798 68.2639 49.8129 73.7613 54.7643 81.8105C59.1571 88.9329 62.0137 91.9291 63.6387 93.1733C65.4035 94.5318 66.1144 94.2017 66.1271 94.2017L66.2033 94.3413C66.1906 94.3413 66.1652 94.354 66.1271 94.3667Z" fill="#1D1D1B"/>
<path d="M27.9629 86.8253L27.8232 86.7364L29.2579 84.54L29.3975 84.6289L27.9629 86.8253Z" fill="#1D1D1B"/>
<path d="M26.8965 85.9238L26.7695 85.8349L28.2042 83.6385L28.3438 83.7274L26.8965 85.9238Z" fill="#1D1D1B"/>
<path d="M136.564 40.028C136.564 44.1415 135.129 47.9249 132.755 50.9084C130.013 54.3363 125.988 56.7105 121.418 57.3072C120.673 57.4087 119.911 57.4595 119.132 57.4595C119.09 57.4595 119.044 57.4595 118.993 57.4595C118.29 57.4511 117.596 57.4045 116.911 57.3199C116.733 57.2945 116.551 57.2691 116.365 57.2437C111.896 56.5327 107.985 54.1205 105.332 50.6799C103.059 47.7345 101.701 44.0399 101.701 40.028C101.701 30.4045 109.509 22.6093 119.132 22.6093C128.756 22.6093 136.564 30.4045 136.564 40.028Z" fill="#3422F2"/>
<path d="M115.843 38.3269C115.843 38.3269 116.592 45.0176 117.583 45.0938C118.586 45.1573 116.897 53.0033 114.244 49.1565C113.317 47.8107 113.355 38.9998 115.577 37.1208C117.799 35.2291 115.843 38.3269 115.843 38.3269Z" fill="#222222"/>
<path d="M120.046 34.8482C120.046 34.7467 121.328 37.362 121.328 37.362L121.176 47.9377L116.707 48.4455L116.783 44.7256C115.793 44.7002 115.387 44.1035 115.387 44.1035C114.562 42.9736 115.476 36.6383 115.476 36.6383C115.476 36.6383 120.046 34.9625 120.046 34.8482Z" fill="#FE9F73"/>
<path d="M116.835 41.9199C116.581 41.8438 116.467 41.374 116.454 41.3486V41.3232L116.467 41.2978C116.738 41.1116 116.898 40.8747 116.949 40.5869C117.038 40.1171 116.822 39.6728 116.822 39.6601C116.822 39.6474 116.822 39.622 116.835 39.6093C116.848 39.5966 116.86 39.5966 116.873 39.622C116.886 39.6347 117.102 40.1044 117.013 40.5996C116.949 40.9043 116.784 41.1709 116.518 41.3613C116.556 41.4629 116.67 41.7803 116.848 41.8438C116.86 41.8438 116.873 41.8692 116.873 41.8946C116.873 41.9073 116.86 41.9199 116.848 41.9199C116.839 41.9199 116.835 41.9199 116.835 41.9199Z" fill="#FB554B"/>
<path d="M116.758 45.9952L116.783 44.7256C116.783 44.7256 118.916 44.6368 120.249 43.8242C120.249 43.8242 118.434 45.5128 116.758 45.9952Z" fill="#FB554B"/>
<path d="M119.741 39.7993C119.703 39.7612 118.815 38.8217 117.964 39.4819C117.939 39.5073 117.888 39.5073 117.85 39.4692C117.824 39.4311 117.837 39.3803 117.862 39.355C118.827 38.6059 119.843 39.685 119.856 39.685C119.894 39.7231 119.881 39.7739 119.856 39.7993C119.839 39.8162 119.818 39.8247 119.792 39.8247C119.775 39.8247 119.758 39.8162 119.741 39.7993Z" fill="#2F0E1B"/>
<path d="M116.415 39.5837C116.415 39.5837 115.781 39.0251 115.425 39.3298C115.4 39.3552 115.349 39.3552 115.311 39.3171C115.286 39.279 115.286 39.2282 115.324 39.2028C115.781 38.822 116.492 39.4441 116.53 39.4694C116.555 39.4948 116.568 39.5456 116.53 39.5837C116.513 39.6006 116.496 39.6091 116.479 39.6091C116.454 39.6091 116.432 39.6006 116.415 39.5837Z" fill="#2F0E1B"/>
<path d="M118.409 40.0281C118.523 40.0281 118.624 40.1423 118.624 40.2566C118.624 40.3836 118.523 40.4851 118.396 40.4851C118.269 40.4851 118.167 40.3836 118.18 40.2566C118.18 40.1296 118.282 40.0281 118.409 40.0281Z" fill="#010103"/>
<path d="M115.768 40.0027C115.895 40.0027 115.996 40.1043 115.984 40.2312C115.984 40.3582 115.882 40.4597 115.755 40.447C115.641 40.447 115.539 40.3455 115.539 40.2185C115.539 40.1043 115.641 40.0027 115.768 40.0027Z" fill="#010103"/>
<path d="M117.228 43.0244C116.644 43.0879 116.365 42.4785 116.365 42.4785C116.365 42.4785 117.926 42.3008 117.951 42.3008C117.951 42.3008 117.812 42.961 117.228 43.0244Z" fill="#FBFDFA"/>
<path d="M116.911 36.397C116.758 36.3462 118.51 35.2671 118.51 35.2671L117.418 36.7652C117.418 36.7652 117.05 36.4478 116.911 36.397Z" fill="#FC8759"/>
<path d="M120.681 36.0541C120.681 36.0541 120.363 38.4155 114.714 38.8853C114.714 38.8853 113.393 35.3939 117.507 34.2259C121.608 33.0578 121.976 36.2064 121.9 36.181C121.811 36.1556 120.681 36.0541 120.681 36.0541Z" fill="#222222"/>
<path d="M120.046 34.7719C121.95 33.2992 124.896 35.7495 124.934 38.1744C124.985 42.034 127.308 49.3214 123.944 49.3722H123.271C119.462 49.9308 121.214 40.0534 121.214 40.0534C120.719 38.9362 119.817 37.3746 119.817 37.3746C119.817 37.3746 118.129 36.2446 120.046 34.7719Z" fill="#222222"/>
<path d="M121.659 40.0151C122.357 40.0151 122.916 40.5991 122.916 41.2974C122.903 41.9957 122.332 42.5416 121.633 42.5416C120.935 42.5289 120.376 41.9576 120.389 41.2593C120.389 40.561 120.973 40.0024 121.659 40.0151Z" fill="#FE9F73"/>
<path d="M121.722 42.0594C121.697 42.0594 121.684 42.034 121.684 42.0086C121.684 41.9959 121.697 41.9705 121.722 41.9705C121.963 41.9832 122.103 41.7928 122.154 41.6404C122.205 41.4881 122.192 41.2722 122.001 41.1453C121.646 40.9295 121.354 41.2088 121.341 41.2215L121.227 41.323L121.265 41.1834C121.324 40.9633 121.434 40.811 121.595 40.7263C121.875 40.574 122.205 40.6882 122.217 40.6882C122.243 40.7009 122.255 40.7136 122.243 40.739C122.243 40.7644 122.217 40.7771 122.192 40.7644C122.192 40.7644 121.887 40.6628 121.633 40.7898C121.523 40.849 121.443 40.9464 121.392 41.0818C121.519 41.0056 121.773 40.9041 122.04 41.0818C122.23 41.1961 122.306 41.4246 122.23 41.6658C122.179 41.8563 121.989 42.0594 121.735 42.0594C121.726 42.0594 121.722 42.0594 121.722 42.0594Z" fill="#FB554B"/>
<path d="M115.069 37.7175L113.711 43.5957C113.267 37.6413 115.222 35.5719 115.222 35.5719L115.069 37.7175Z" fill="#222222"/>
<path d="M121.417 57.3073C120.673 57.4089 119.911 57.4597 119.132 57.4597C119.09 57.4597 119.043 57.4597 118.993 57.4597C118.29 57.4512 117.596 57.4047 116.91 57.32L117.012 56.8884L118.574 50.35L118.993 48.5853L119.094 48.179L119.259 47.4553H126.686C127.473 47.4553 128.553 47.9759 128.603 48.0012C129.606 48.5345 131.155 49.5628 132.755 50.9086C130.013 54.3365 125.988 56.7106 121.417 57.3073Z" fill="#F3F3F3"/>
<path d="M118.993 47.4553V57.4597C118.29 57.4512 117.596 57.4047 116.911 57.32C116.733 57.2947 116.551 57.2693 116.365 57.2439C111.896 56.5329 107.985 54.1207 105.332 50.6801C107.021 49.474 108.633 48.5472 109.661 48.0012C109.699 47.9759 110.791 47.4553 111.578 47.4553H118.993Z" fill="#F3F3F3"/>
<path d="M114.701 47.4552H124.083C124.083 47.4552 122.382 50.4007 119.145 50.388C117.659 50.3753 116.06 49.8293 114.701 47.4552Z" fill="#FE9F73"/>
<path fill-rule="evenodd" clip-rule="evenodd" d="M119.132 58.0691C119.082 58.0691 119.031 58.0691 118.98 58.0691C118.269 58.0691 117.545 58.0183 116.834 57.9294C116.665 57.904 116.479 57.8744 116.276 57.8406C111.731 57.1169 107.681 54.7174 104.85 51.0609C102.399 47.8743 101.092 44.0655 101.092 40.0282C101.092 35.2164 102.971 30.684 106.373 27.2815C109.788 23.8663 114.308 22 119.132 22C123.944 22 128.477 23.8663 131.892 27.2815C135.294 30.684 137.173 35.2164 137.173 40.0282C137.173 44.1671 135.802 48.0647 133.225 51.2895C130.292 54.9586 126.128 57.3073 121.494 57.9167C120.732 58.0183 119.932 58.0691 119.132 58.0691ZM119.132 23.2188C109.864 23.2188 102.31 30.7602 102.31 40.0282C102.31 43.7862 103.529 47.341 105.814 50.3119C108.455 53.7144 112.239 55.9616 116.466 56.6344C116.657 56.6725 116.822 56.6979 116.987 56.7106C117.647 56.7995 118.32 56.8376 119.005 56.8503C119.048 56.8503 119.09 56.8503 119.132 56.8503C119.882 56.8503 120.618 56.7995 121.342 56.7106C125.658 56.1393 129.543 53.9429 132.273 50.5277C134.672 47.5188 135.955 43.8877 135.955 40.0282C135.955 30.7602 128.4 23.2188 119.132 23.2188Z" fill="white"/>
<path d="M135.954 134.841C135.954 137.533 135.421 140.097 134.456 142.446C134.439 142.497 134.418 142.552 134.392 142.611C134.384 142.62 134.38 142.632 134.38 142.649C133.466 144.807 132.183 146.775 130.609 148.464C130.567 148.515 130.52 148.565 130.469 148.616C130.419 148.667 130.368 148.718 130.317 148.769C126.673 152.539 121.57 154.888 115.907 154.888C112.809 154.888 109.877 154.19 107.261 152.933C106.779 152.704 106.301 152.45 105.827 152.171C105.75 152.129 105.674 152.082 105.598 152.031C105.387 151.904 105.175 151.773 104.963 151.638C104.896 151.596 104.824 151.549 104.747 151.498C103.313 150.533 102.005 149.378 100.85 148.083C100.435 147.609 100.042 147.118 99.6691 146.61C98.8693 145.506 98.171 144.312 97.6124 143.055C96.4824 140.542 95.8604 137.761 95.8604 134.841C95.8604 123.758 104.836 114.782 115.907 114.782C126.978 114.782 135.954 123.758 135.954 134.841Z" fill="#DCDCDC"/>
<path d="M109.546 125.598C109.546 125.598 108.01 122.069 112.047 119.149C116.097 116.229 116.72 121.231 118.268 121.713C119.83 122.183 122.649 121.65 123.664 124.57C124.68 127.49 124.083 129.623 125.721 130.093C127.346 130.562 132.691 134.777 131.244 140.224C129.796 145.683 124.477 145.315 124.477 145.315C124.477 145.315 103.592 145.962 102.246 140.516C100.888 135.069 102.932 132.746 105.611 130.943C107.248 129.839 110.537 128.937 109.546 125.598Z" fill="#222222"/>
<path d="M120.63 127.554L119.145 142.979L112.505 142.344L112.949 137.634C111.476 137.469 110.943 136.517 110.943 136.517C109.838 134.727 111.692 127.325 111.692 127.325L120.63 127.554Z" fill="#FE9F73"/>
<path d="M113.279 133.432C112.759 133.267 112.556 132.543 112.543 132.505L112.53 132.454L112.581 132.441C113.152 132.213 113.521 131.87 113.673 131.438C113.914 130.766 113.521 130.055 113.508 130.055C113.495 130.017 113.508 129.978 113.533 129.966C113.559 129.953 113.597 129.953 113.622 129.991C113.635 130.017 114.041 130.753 113.787 131.489C113.635 131.934 113.254 132.289 112.67 132.53C112.733 132.695 112.937 133.19 113.317 133.317C113.343 133.33 113.356 133.356 113.356 133.394C113.343 133.419 113.317 133.432 113.292 133.432C113.284 133.432 113.279 133.432 113.279 133.432Z" fill="#FB554B"/>
<path d="M112.771 139.526L112.949 137.634C112.949 137.634 116.173 137.761 118.256 136.707C118.256 136.707 115.348 139.018 112.771 139.526Z" fill="#F07162"/>
<path d="M117.215 130.562C117.164 130.499 115.945 128.975 114.599 129.864C114.549 129.902 114.472 129.89 114.434 129.826C114.396 129.775 114.409 129.699 114.472 129.661C115.996 128.658 117.392 130.385 117.405 130.41C117.456 130.461 117.443 130.537 117.392 130.575C117.367 130.601 117.337 130.609 117.304 130.601C117.27 130.601 117.24 130.588 117.215 130.562Z" fill="#2F0E1B"/>
<path d="M113.051 129.902C113.038 129.889 112.162 128.975 111.591 129.382C111.54 129.42 111.464 129.407 111.426 129.344C111.388 129.293 111.401 129.217 111.451 129.179C112.188 128.658 113.178 129.686 113.229 129.724C113.267 129.775 113.267 129.851 113.216 129.902C113.191 129.928 113.153 129.94 113.127 129.94C113.093 129.932 113.068 129.919 113.051 129.902Z" fill="#2F0E1B"/>
<path d="M112.023 130.435C112.2 130.448 112.34 130.613 112.327 130.804C112.302 130.994 112.137 131.121 111.959 131.108C111.769 131.096 111.629 130.931 111.654 130.74C111.667 130.55 111.832 130.41 112.023 130.435Z" fill="#010103"/>
<path d="M115.374 130.702C115.565 130.727 115.692 130.892 115.679 131.07C115.654 131.261 115.489 131.4 115.311 131.375C115.12 131.362 114.981 131.197 115.006 131.007C115.019 130.829 115.184 130.689 115.374 130.702Z" fill="#010103"/>
<path d="M120.846 131.172C121.887 131.273 122.661 132.2 122.56 133.241C122.458 134.295 121.531 135.057 120.49 134.955C119.436 134.854 118.675 133.927 118.776 132.886C118.878 131.845 119.805 131.07 120.846 131.172Z" fill="#FE9F73"/>
<path d="M120.681 134.244C120.656 134.244 120.63 134.206 120.63 134.181C120.63 134.143 120.668 134.117 120.694 134.117C121.062 134.155 121.291 133.901 121.392 133.673C121.481 133.457 121.481 133.127 121.214 132.911C120.719 132.543 120.224 132.924 120.211 132.949L120.046 133.089L120.11 132.873C120.228 132.551 120.415 132.336 120.668 132.226C121.1 132.048 121.583 132.251 121.595 132.264C121.633 132.276 121.646 132.314 121.633 132.34C121.621 132.365 121.583 132.378 121.545 132.365C121.545 132.365 121.1 132.175 120.719 132.34C120.542 132.416 120.402 132.551 120.3 132.746C120.516 132.645 120.897 132.53 121.278 132.822C121.557 133.025 121.633 133.381 121.506 133.724C121.379 134.016 121.087 134.282 120.694 134.244C120.694 134.244 120.69 134.244 120.681 134.244Z" fill="#FB554B"/>
<path d="M111.692 127.325C111.692 127.325 112.543 124.468 116.466 124.532C120.389 124.582 120.63 127.553 120.63 127.553L116.097 128.023L111.971 127.325H111.692Z" fill="#FE9F73"/>
<path d="M112.746 122.919C112.746 122.919 117.228 123.63 117.494 123.656C117.761 123.681 121.836 125.814 121.836 125.814C121.836 125.814 122.56 131.248 120.275 131.21C117.989 131.159 117.304 127.223 117.304 127.223C114.117 127.465 111.933 124.862 111.933 124.862L112.746 122.919Z" fill="#222222"/>
<path d="M112.606 134.219C112.645 134.206 114.917 133.965 114.917 133.965C114.917 133.965 114.701 134.93 113.863 135.019C113.013 135.108 112.606 134.219 112.606 134.219Z" fill="#FBFDFA"/>
<path d="M131.358 141.456C132.399 141.671 133.428 142.065 134.393 142.611C134.384 142.619 134.38 142.632 134.38 142.649C133.466 144.807 132.184 146.775 130.609 148.464C130.567 148.515 130.52 148.565 130.47 148.616C130.419 148.667 130.368 148.718 130.317 148.768C126.673 152.539 121.57 154.888 115.907 154.888C112.81 154.888 109.877 154.19 107.261 152.933C106.779 152.704 106.301 152.45 105.827 152.171C105.751 152.129 105.674 152.082 105.598 152.031C105.387 151.904 105.175 151.773 104.963 151.638C104.896 151.595 104.824 151.549 104.748 151.498C103.313 150.533 102.005 149.378 100.85 148.083C100.435 147.609 100.042 147.118 99.6693 146.61C98.8695 145.506 98.1712 144.312 97.6125 143.055C98.6028 142.395 100.545 141.9 102.767 141.532C104.481 141.252 106.373 141.049 108.099 140.897C109.915 140.745 111.553 140.656 112.67 140.605C113.597 140.567 114.155 140.554 114.155 140.554C114.155 140.554 116.428 140.554 119.361 140.63C120.694 140.668 122.166 140.719 123.626 140.77C123.626 140.778 123.626 140.783 123.626 140.783C124.756 140.821 125.861 140.884 126.902 140.96C128.451 141.062 129.835 141.202 130.863 141.367C130.939 141.375 131.015 141.388 131.092 141.405C131.1 141.405 131.109 141.405 131.117 141.405C131.176 141.422 131.236 141.434 131.295 141.443C131.32 141.451 131.341 141.456 131.358 141.456Z" fill="#999999"/>
<path d="M134.456 142.446C134.439 142.497 134.418 142.552 134.393 142.611C134.384 142.619 134.38 142.632 134.38 142.649C133.999 142.446 133.618 142.281 133.237 142.154C132.56 141.934 131.739 141.739 130.774 141.57C129.691 141.375 128.434 141.214 127.004 141.087C126.94 141.075 126.902 141.024 126.902 140.973C126.902 140.965 126.902 140.96 126.902 140.96C126.915 140.897 126.966 140.859 127.016 140.872C128.476 140.999 129.759 141.164 130.863 141.367C130.939 141.375 131.016 141.388 131.092 141.405C131.1 141.405 131.109 141.405 131.117 141.405C131.202 141.422 131.282 141.439 131.358 141.456C132.103 141.608 132.751 141.773 133.301 141.951C133.69 142.078 134.075 142.243 134.456 142.446Z" fill="#010103"/>
<path d="M108.099 140.897C108.099 140.897 115.729 148.502 123.639 140.783C123.639 140.783 114.599 139.767 108.099 140.897Z" fill="#FE9F73"/>
<path fill-rule="evenodd" clip-rule="evenodd" d="M115.907 154.913C115.848 154.913 115.789 154.913 115.73 154.913C114.905 154.901 114.079 154.85 113.267 154.748C113.064 154.723 112.848 154.689 112.619 154.647C107.401 153.821 102.729 151.041 99.479 146.839C96.6478 143.182 95.1497 138.802 95.1497 134.156C95.1497 128.62 97.308 123.402 101.231 119.479C105.154 115.569 110.359 113.41 115.907 113.41C121.443 113.41 126.661 115.569 130.584 119.479C134.494 123.402 136.653 128.62 136.653 134.156C136.653 138.916 135.091 143.398 132.12 147.105C128.743 151.32 123.957 154.037 118.624 154.736C117.736 154.85 116.822 154.913 115.907 154.913ZM115.907 114.807C105.243 114.807 96.5589 123.491 96.5589 134.156C96.5589 138.485 97.9555 142.573 100.596 145.988C103.618 149.898 107.973 152.488 112.835 153.263C113.051 153.301 113.254 153.326 113.444 153.352C114.206 153.453 114.981 153.504 115.755 153.504C115.806 153.504 115.857 153.504 115.907 153.504C116.758 153.504 117.621 153.453 118.447 153.339C123.411 152.692 127.88 150.165 131.028 146.229C133.796 142.776 135.256 138.599 135.256 134.156C135.256 123.491 126.572 114.807 115.907 114.807Z" fill="white"/>
<path d="M168.139 74.4341C177.521 74.4341 185.126 82.0389 185.126 91.4212C185.126 95.1411 183.919 98.5944 181.888 101.388C181.575 101.819 181.241 102.238 180.885 102.644C179.387 104.346 177.533 105.755 175.451 106.745C173.242 107.812 170.754 108.408 168.139 108.408C163.352 108.408 159.023 106.415 155.925 103.228C155.883 103.186 155.84 103.14 155.798 103.089C155.764 103.046 155.726 103.004 155.684 102.962C152.878 99.9402 151.151 95.8775 151.151 91.4212C151.151 82.0389 158.756 74.4341 168.139 74.4341Z" fill="#DCDCDC"/>
<path d="M175.452 106.745C173.243 107.811 170.755 108.408 168.14 108.408C163.353 108.408 159.024 106.415 155.926 103.228C155.884 103.186 155.841 103.139 155.799 103.089C157.564 101.667 160.052 100.41 163.556 99.8003C163.201 99.9527 164.09 99.7368 164.356 99.6606C164.407 99.6606 164.432 99.6479 164.432 99.6479C164.432 99.6479 164.547 99.6479 164.75 99.6606C165.74 99.6987 168.85 99.8257 171.936 100.016C172.046 100.016 172.151 100.02 172.253 100.029C174.424 100.168 176.557 100.334 177.89 100.511C179.109 100.676 180.086 101.489 180.886 102.644C179.388 104.345 177.534 105.755 175.452 106.745Z" fill="#999999"/>
<path d="M171.986 84.5402L172.049 93.0845L171.91 95.2936C171.91 95.2936 172.418 99.8006 172.189 100.727C171.961 101.667 170.551 103.508 168.05 103.444C167.263 103.419 166.565 103.267 165.981 103.063C164.8 102.657 164.089 101.451 164.28 100.22L164.775 96.8806C162.591 96.5124 162.756 94.0113 162.756 94.0113L162.959 86.216L171.986 84.5402Z" fill="#FE9F73"/>
<path d="M169.903 94.887C169.903 94.887 169.649 99.0766 164.406 99.3432L164.774 96.8802C164.774 96.8802 168.151 97.6547 169.903 94.887Z" fill="#F07162"/>
<path d="M168.825 90.431C168.774 90.3675 167.542 89.0471 166.362 89.9612C166.311 89.9866 166.247 89.9866 166.209 89.9358C166.171 89.8978 166.184 89.8216 166.235 89.7962C167.568 88.7678 168.964 90.2786 168.977 90.2913C169.015 90.3294 169.015 90.3929 168.977 90.431C168.951 90.4564 168.926 90.4691 168.901 90.4691C168.875 90.4691 168.85 90.4564 168.825 90.431Z" fill="#2D0F28"/>
<path d="M172.518 89.4664L170.259 89.8727L169.84 90.2789C169.84 90.2789 170.132 86.5082 170.576 85.7846C171.02 85.0482 172.518 89.4664 172.518 89.4664Z" fill="#222222"/>
<path d="M164.547 89.6948C164.534 89.6948 163.671 88.9076 163.163 89.3139C163.125 89.352 163.048 89.352 163.01 89.3012C162.985 89.2504 162.985 89.187 163.036 89.1489C163.671 88.6283 164.648 89.5043 164.686 89.5424C164.737 89.5805 164.737 89.644 164.699 89.6948C164.674 89.7202 164.648 89.7329 164.61 89.7329C164.593 89.7244 164.572 89.7117 164.547 89.6948Z" fill="#2D0F28"/>
<path d="M167.098 90.5327C167.275 90.5327 167.415 90.6723 167.402 90.8501C167.402 91.0151 167.263 91.1548 167.085 91.1548C166.907 91.1421 166.78 91.0024 166.78 90.8374C166.78 90.6596 166.933 90.52 167.098 90.5327Z" fill="#010103"/>
<path d="M163.784 90.1265C163.949 90.1265 164.089 90.2788 164.089 90.4439C164.076 90.6216 163.937 90.7613 163.759 90.7486C163.594 90.7486 163.454 90.6089 163.454 90.4312C163.467 90.2534 163.607 90.1265 163.784 90.1265Z" fill="#010103"/>
<path d="M171.299 88.9583C172.328 88.9837 173.153 89.847 173.128 90.8881C173.102 91.9292 172.239 92.7417 171.198 92.7163C170.157 92.6909 169.344 91.8276 169.37 90.7865C169.395 89.7582 170.258 88.9329 171.299 88.9583Z" fill="#FE9F73"/>
<path d="M171.542 91.8911C171.503 91.8911 171.491 91.8657 171.491 91.8403C171.491 91.8022 171.516 91.7895 171.542 91.7895C171.542 91.7895 171.546 91.7895 171.554 91.7895C171.91 91.7895 172.126 91.5229 172.202 91.2944C172.278 91.0659 172.253 90.7358 171.973 90.5453C171.453 90.2025 170.996 90.6215 170.97 90.6469L170.831 90.7739L170.881 90.5961C170.974 90.266 171.14 90.0417 171.376 89.9232C171.795 89.7074 172.278 89.8724 172.303 89.8851C172.329 89.8978 172.341 89.9232 172.329 89.9486C172.316 89.974 172.291 89.9867 172.265 89.9867C172.265 89.974 171.808 89.8217 171.427 90.0121C171.258 90.1052 171.127 90.2576 171.034 90.4692C171.237 90.3422 171.618 90.1898 172.024 90.4565C172.303 90.6342 172.405 90.977 172.303 91.3198C172.202 91.6118 171.935 91.9038 171.542 91.8911Z" fill="#FB554B"/>
<path d="M165.599 92.9066L164.482 92.5131L164.888 89.9739C164.901 89.9485 164.926 89.9231 164.952 89.9231C164.977 89.9358 165.002 89.9612 165.002 89.9866L164.596 92.4369L165.637 92.8178C165.663 92.8178 165.675 92.8559 165.675 92.8812C165.663 92.9066 165.637 92.9193 165.625 92.9193C165.616 92.9193 165.608 92.9151 165.599 92.9066Z" fill="#FB554B"/>
<path d="M165.334 94.7351C164.572 94.6971 164.344 93.8464 164.344 93.8464C164.344 93.8464 166.375 93.948 166.4 93.948C166.4 93.948 166.083 94.7732 165.334 94.7351Z" fill="#FBFDFA"/>
<path d="M168.901 86.4444C165.562 87.422 160.039 86.3047 160.687 84.0322C161.322 81.7596 163.886 82.661 163.886 82.661C163.886 82.661 163.124 81.8104 163.924 81.1502C164.724 80.49 171.085 83.0419 172.164 84.4257C173.256 85.8223 172.519 89.466 172.519 89.466C171.072 87.13 168.901 86.4444 168.901 86.4444Z" fill="#222222"/>
<path fill-rule="evenodd" clip-rule="evenodd" d="M168.177 109.462C168.126 109.462 168.08 109.462 168.037 109.462C167.326 109.462 166.628 109.411 165.942 109.322C165.773 109.306 165.587 109.28 165.384 109.246C160.966 108.548 157.017 106.199 154.262 102.632C151.863 99.5339 150.593 95.814 150.593 91.891C150.593 87.1935 152.421 82.7753 155.748 79.4617C159.061 76.1353 163.479 74.3071 168.177 74.3071C172.874 74.3071 177.28 76.1353 180.606 79.4617C183.92 82.7753 185.748 87.1935 185.748 91.891C185.748 95.9283 184.428 99.7116 181.914 102.86C179.057 106.428 174.995 108.726 170.475 109.322C169.726 109.411 168.951 109.462 168.177 109.462ZM168.177 75.5005C159.137 75.5005 151.786 82.8515 151.786 91.891C151.786 95.5474 152.967 99.0134 155.202 101.908C157.766 105.222 161.461 107.418 165.574 108.078C165.765 108.104 165.93 108.129 166.082 108.142C166.73 108.231 167.39 108.269 168.05 108.281C168.092 108.281 168.135 108.281 168.177 108.281C168.901 108.281 169.624 108.231 170.322 108.142C174.538 107.583 178.321 105.45 180.987 102.111C183.323 99.1911 184.567 95.649 184.567 91.891C184.567 82.8515 177.216 75.5005 168.177 75.5005Z" fill="#CFCFCF"/>
<path d="M69.6182 71.2601L69.0596 70.2571L73.9475 67.5402L74.5061 68.5432L69.6182 71.2601ZM79.3814 65.8009L78.8227 64.8106L83.7107 62.081L84.2693 63.0839L79.3814 65.8009ZM89.1445 60.3543L88.5859 59.3513L93.4611 56.6344L94.0197 57.6247L89.1445 60.3543ZM98.9204 54.9078L98.3617 53.9048L103.237 51.1879L103.796 52.1908L98.9204 54.9078Z" fill="#3422F2"/>
<path d="M157.817 77.9383L154.821 73.9136L155.748 73.2281L158.731 77.2527L157.817 77.9383ZM151.494 69.432L148.155 64.9503L149.07 64.2648L152.409 68.7464L151.494 69.432ZM144.816 60.456L141.477 55.9743L142.404 55.2887L145.743 59.7704L144.816 60.456ZM138.138 51.4927L134.799 47.011L135.713 46.3254L139.052 50.8071L138.138 51.4927Z" fill="#3422F2"/>
<path d="M134.672 124.964L133.923 124.088L138.176 120.457L138.925 121.333L134.672 124.964ZM143.178 117.702L142.429 116.838L146.682 113.207L147.431 114.071L143.178 117.702ZM151.684 110.452L150.935 109.576L155.188 105.945L155.938 106.821L151.684 110.452Z" fill="#3422F2"/>
<path d="M150.669 90.0626L147.838 89.6437L148.003 88.5137L150.847 88.9327L150.669 90.0626ZM142.29 88.8184L136.767 87.9932L136.932 86.8633L142.467 87.6885L142.29 88.8184ZM131.219 87.168L125.696 86.3554L125.861 85.2255L131.397 86.038L131.219 87.168ZM120.148 85.5302L114.625 84.7049L114.79 83.575L120.326 84.4002L120.148 85.5302ZM109.077 83.8797L103.555 83.0672L103.72 81.9245L109.255 82.7498L109.077 83.8797ZM98.0064 82.2419L92.4837 81.4167L92.6487 80.2868L98.1842 81.0993L98.0064 82.2419ZM86.9356 80.6042L81.4129 79.7916L81.5779 78.649L87.1133 79.4742L86.9356 80.6042ZM75.8648 78.9664L70.342 78.1412L70.5071 77.0112L76.0298 77.8238L75.8648 78.9664Z" fill="#3422F2"/>
<path d="M199.142 148.553C199.142 152.387 197.669 155.866 195.257 158.468C195.223 158.502 195.19 158.536 195.156 158.57C195.122 158.612 195.084 158.65 195.041 158.684C192.401 161.426 188.681 163.14 184.567 163.14C182.32 163.14 180.187 162.632 178.283 161.718C176.493 160.868 174.906 159.662 173.611 158.189C173.315 157.842 173.031 157.482 172.76 157.11C171.008 154.71 169.98 151.752 169.98 148.553C169.98 140.503 176.505 133.965 184.567 133.965C192.617 133.965 199.142 140.503 199.142 148.553Z" fill="#3422F2"/>
<path d="M181.596 155.358C181.596 155.358 181.495 155.561 181.304 155.929C181.228 156.065 181.148 156.217 181.063 156.386C180.745 156.983 180.327 157.783 179.844 158.71C179.802 158.794 179.759 158.875 179.717 158.951C179.273 159.814 178.778 160.754 178.282 161.718C176.492 160.868 174.905 159.662 173.61 158.189C173.314 157.842 173.031 157.482 172.76 157.11C172.938 156.932 173.132 156.784 173.344 156.665C175.502 155.447 179.565 155.345 181.037 155.345C181.393 155.345 181.596 155.358 181.596 155.358Z" fill="#DCF4FF"/>
<path d="M173.611 158.189C174.296 157.199 175.147 156.501 176.201 156.361C177.343 156.209 179.172 156.056 181.038 155.942C181.123 155.942 181.211 155.938 181.305 155.929C183.958 155.764 186.624 155.663 187.475 155.625C187.653 155.625 187.741 155.612 187.741 155.612C187.741 155.612 187.767 155.625 187.818 155.637C188.046 155.688 188.808 155.891 188.503 155.751C191.512 156.272 193.645 157.351 195.156 158.57C195.122 158.612 195.084 158.65 195.042 158.684C192.401 161.427 188.681 163.14 184.567 163.14C182.32 163.14 180.187 162.633 178.283 161.719C176.493 160.868 174.906 159.662 173.611 158.189Z" fill="#DCF4FF"/>
<path d="M184.465 159.382C182.523 159.395 180.961 157.237 181.038 154.621L181.228 150.901L187.373 150.863L187.652 154.647C187.83 157.3 186.459 159.357 184.465 159.382Z" fill="#FE9F73"/>
<path d="M181.229 150.901L187.373 150.863L187.538 153.288C187.043 155.916 182.257 156.157 181.152 153.491L181.229 150.901Z" fill="#F07162"/>
<path d="M189.696 145.214C190.622 145.214 191.384 145.963 191.384 146.89C191.397 147.829 190.635 148.591 189.708 148.591C188.769 148.604 188.02 147.842 188.007 146.915C188.007 145.976 188.756 145.214 189.696 145.214Z" fill="#FE9F73"/>
<path d="M189.823 147.943C189.785 147.943 189.759 147.918 189.772 147.892C189.772 147.867 189.797 147.842 189.823 147.842C190.14 147.842 190.331 147.588 190.394 147.385C190.445 147.181 190.432 146.877 190.166 146.724C189.696 146.432 189.302 146.826 189.277 146.839L189.15 146.978L189.188 146.788C189.264 146.492 189.408 146.284 189.62 146.166C189.988 145.963 190.432 146.102 190.458 146.102C190.483 146.115 190.496 146.14 190.483 146.178C190.483 146.204 190.445 146.216 190.419 146.204C190.419 146.204 190.001 146.077 189.67 146.255C189.527 146.339 189.417 146.475 189.34 146.661C189.531 146.547 189.861 146.407 190.216 146.635C190.483 146.788 190.585 147.093 190.496 147.41C190.419 147.677 190.178 147.943 189.835 147.943C189.827 147.943 189.823 147.943 189.823 147.943Z" fill="#F07162"/>
<path d="M189.252 145.722C189.963 136.669 175.858 132.899 179.362 148.604C181.165 155.396 189.57 154.558 189.252 145.722Z" fill="#FE9F73"/>
<path d="M180.06 146.953C180.06 147.893 179.311 148.642 178.384 148.654C177.445 148.654 176.683 147.905 176.683 146.966C176.67 146.039 177.432 145.277 178.359 145.277C179.298 145.264 180.06 146.026 180.06 146.953Z" fill="#FE9F73"/>
<path d="M178.258 148.006C177.902 148.006 177.661 147.74 177.585 147.473C177.483 147.156 177.585 146.851 177.851 146.699C178.207 146.47 178.537 146.597 178.727 146.711C178.651 146.534 178.537 146.403 178.385 146.318C178.055 146.14 177.648 146.267 177.648 146.28C177.623 146.28 177.585 146.267 177.572 146.242C177.572 146.216 177.585 146.178 177.61 146.178C177.623 146.166 178.067 146.026 178.435 146.229C178.656 146.339 178.804 146.542 178.88 146.838L178.931 147.029L178.791 146.889C178.766 146.876 178.372 146.496 177.902 146.788C177.648 146.953 177.623 147.245 177.686 147.448C177.75 147.651 177.94 147.905 178.258 147.892C178.283 147.892 178.309 147.918 178.321 147.956C178.321 147.981 178.296 148.006 178.258 148.006Z" fill="#F07162"/>
<path d="M182.549 145.861C182.549 146.052 182.396 146.217 182.206 146.217C182.015 146.217 181.85 146.064 181.85 145.874C181.85 145.683 182.003 145.518 182.193 145.518C182.384 145.518 182.549 145.671 182.549 145.861Z" fill="#010103"/>
<path d="M186.446 145.569C186.636 145.569 186.788 145.722 186.788 145.912C186.788 146.103 186.636 146.255 186.446 146.255C186.255 146.255 186.103 146.103 186.103 145.912C186.103 145.722 186.255 145.569 186.446 145.569Z" fill="#010103"/>
<path d="M187.868 145.303C187.805 145.303 187.741 145.29 187.69 145.239C186.878 144.566 185.71 144.947 185.697 144.947C185.545 144.998 185.392 144.922 185.342 144.769C185.291 144.63 185.367 144.465 185.519 144.414C185.57 144.401 186.992 143.919 188.046 144.807C188.173 144.909 188.185 145.087 188.084 145.201C188.033 145.277 187.944 145.303 187.868 145.303Z" fill="#222222"/>
<path d="M180.835 145.316C180.759 145.316 180.67 145.277 180.62 145.214C180.518 145.087 180.543 144.922 180.658 144.82C181.724 143.944 183.133 144.44 183.197 144.465C183.349 144.516 183.425 144.681 183.362 144.82C183.311 144.973 183.159 145.036 183.006 144.985C182.994 144.985 181.838 144.579 181.013 145.252C180.962 145.29 180.899 145.316 180.835 145.316Z" fill="#222222"/>
<path d="M183.348 149.518C183.386 149.505 185.443 149.454 185.443 149.454C185.443 149.454 185.189 150.305 184.415 150.33C183.653 150.356 183.348 149.518 183.348 149.518Z" fill="#FBFDFA"/>
<path d="M189.24 145.43C188.973 145.861 188.351 146.039 188.351 146.039C188.351 146.039 188.351 141.697 188.097 141.113C187.843 140.542 186.37 139.361 185.266 140.313C184.606 140.872 184.149 140.897 183.895 140.808C183.628 140.859 183.209 140.783 182.625 140.275C181.533 139.323 180.048 140.478 179.781 141.05C179.527 141.621 179.476 145.976 179.476 145.976C179.476 145.976 178.867 145.785 178.6 145.353C178.321 144.909 178.27 139.564 178.626 138.904C180.314 135.844 188.11 136.847 189.278 138.98C189.646 139.64 189.519 144.985 189.24 145.43Z" fill="#222222"/>
<path d="M185.063 147.931L183.92 147.651L184.06 145.087C184.06 145.061 184.085 145.036 184.111 145.036C184.136 145.049 184.161 145.061 184.161 145.099L184.022 147.562L185.088 147.829C185.114 147.829 185.139 147.854 185.126 147.892C185.126 147.905 185.101 147.931 185.088 147.931C185.08 147.931 185.071 147.931 185.063 147.931Z" fill="#F07162"/>
<path fill-rule="evenodd" clip-rule="evenodd" d="M183.894 153.529C181.965 153.288 181.012 147.956 183.704 148.083C184.339 148.032 185.075 148.007 185.672 148.172C186.319 148.349 186.751 148.946 186.764 149.606C186.802 151.523 186.814 153.923 183.894 153.529ZM184.186 150.762L184.72 150.736C185.494 152.565 186.129 150.559 186.078 149.543C186.065 149.289 185.888 149.06 185.646 148.984C184.796 148.692 183.133 148.819 182.942 149.213C182.511 149.835 183.475 153.212 184.186 150.762Z" fill="#222222"/>
<path fill-rule="evenodd" clip-rule="evenodd" d="M184.389 164.042C184.347 164.042 184.305 164.042 184.262 164.042C183.64 164.042 183.018 163.991 182.422 163.915C182.269 163.898 182.104 163.877 181.926 163.851C178.041 163.229 174.55 161.16 172.125 158.024C170.018 155.294 168.9 152.019 168.9 148.553C168.9 144.414 170.513 140.529 173.433 137.596C176.366 134.676 180.251 133.064 184.389 133.064C188.528 133.064 192.413 134.676 195.333 137.596C198.266 140.529 199.878 144.414 199.878 148.553C199.878 152.108 198.71 155.447 196.489 158.214C193.975 161.363 190.395 163.394 186.421 163.915C185.761 163.991 185.075 164.042 184.389 164.042ZM184.389 134.117C176.429 134.117 169.941 140.592 169.941 148.553C169.941 151.777 170.983 154.837 172.95 157.376C175.223 160.309 178.46 162.239 182.091 162.81C182.256 162.836 182.409 162.861 182.548 162.874C183.12 162.95 183.691 162.988 184.275 162.988C184.317 162.996 184.356 162.996 184.389 162.988C185.024 162.988 185.659 162.95 186.281 162.874C189.988 162.379 193.327 160.5 195.676 157.567C197.733 154.977 198.825 151.866 198.825 148.553C198.825 140.592 192.35 134.117 184.389 134.117Z" fill="white"/>
<path d="M168.875 149.124L164.774 148.959L164.812 147.816L168.926 147.981L168.875 149.124ZM159.175 148.743L153.589 148.527L153.64 147.372L159.226 147.601L159.175 148.743ZM148.003 148.299L142.417 148.083L142.455 146.928L148.041 147.156L148.003 148.299ZM136.831 147.854L131.244 147.639L131.295 146.496L136.881 146.712L136.831 147.854Z" fill="#3422F2"/>
<path d="M181.292 133.546L180.327 128.519L181.457 128.303L182.421 133.33L181.292 133.546ZM179.273 123.034L178.219 117.537L179.349 117.321L180.403 122.818L179.273 123.034ZM177.165 112.052L176.112 106.555L177.242 106.339L178.295 111.836L177.165 112.052Z" fill="#3422F2"/>
</svg>
