<svg width="40" height="40" viewBox="0 0 40 40" fill="none" xmlns="http://www.w3.org/2000/svg">
<circle cx="20" cy="20" r="20" fill="#F0F0F0"/>
<path d="M20.0001 9.00153C14.0552 8.88431 9.13598 13.5986 9.00024 19.543C9.01576 22.569 10.3556 25.4364 12.6668 27.3896V30.5429C12.6668 30.796 12.8721 31.0012 13.1252 31.0012C13.2111 31.0012 13.2953 30.9771 13.3681 30.9316L15.9228 29.3357C17.2244 29.8335 18.6065 30.0874 20.0001 30.0846C25.945 30.2018 30.8642 25.4875 30.9999 19.5431C30.8642 13.5986 25.945 8.88431 20.0001 9.00153Z" fill="#2196F3"/>
<path d="M27.2417 16.5181C27.1053 16.3353 26.8552 16.2806 26.655 16.3898L21.8884 18.9885L18.9231 16.4457C18.7412 16.2898 18.47 16.3002 18.3007 16.4695L12.8007 21.9695C12.6223 22.149 12.6232 22.4392 12.8027 22.6176C12.9463 22.7603 13.1664 22.792 13.3443 22.6954L18.1109 20.0967L21.079 22.6405C21.2609 22.7963 21.5321 22.786 21.7014 22.6166L27.2014 17.1167C27.3616 16.9549 27.3788 16.7 27.2417 16.5181Z" fill="#FAFAFA"/>
</svg>
