<svg width="13" height="27" viewBox="0 0 13 27" fill="none" xmlns="http://www.w3.org/2000/svg">
<path d="M11.4155 6.19598C11.3348 6.19598 11.2548 6.21189 11.1802 6.2428C11.1056 6.2737 11.0378 6.31902 10.9807 6.37613C10.9235 6.43324 10.8783 6.50104 10.8474 6.57565C10.8165 6.65027 10.8005 6.73024 10.8005 6.811V12.392C10.6902 13.5297 10.1601 14.5856 9.3137 15.3539C8.46728 16.1221 7.36514 16.5478 6.22205 16.5478C5.07896 16.5478 3.97682 16.1221 3.13041 15.3539C2.28399 14.5856 1.75392 13.5297 1.64353 12.392V6.811C1.64942 6.72683 1.63794 6.64235 1.60978 6.56281C1.58161 6.48326 1.53738 6.41035 1.47983 6.34863C1.42229 6.28692 1.35266 6.23772 1.27527 6.20407C1.19789 6.17042 1.11441 6.15308 1.03004 6.15308C0.945656 6.15308 0.862177 6.17042 0.784796 6.20407C0.707415 6.23772 0.637782 6.28692 0.580237 6.34863C0.522691 6.41035 0.478457 6.48326 0.450293 6.56281C0.422129 6.64235 0.410651 6.72683 0.41654 6.811V12.392C0.471854 13.763 1.03309 15.065 1.99192 16.0465C2.95075 17.0281 4.23917 17.6196 5.60853 17.707V23.961H3.32154C3.04717 23.961 2.78404 24.07 2.59003 24.264C2.39603 24.458 2.28705 24.7211 2.28705 24.9955C2.28705 25.2698 2.39603 25.533 2.59003 25.727C2.78404 25.921 3.04717 26.03 3.32154 26.03H9.12153C9.39589 26.03 9.65903 25.921 9.85303 25.727C10.047 25.533 10.156 25.2698 10.156 24.9955C10.156 24.7211 10.047 24.458 9.85303 24.264C9.65903 24.07 9.39589 23.961 9.12153 23.961H6.84354V17.707C8.21406 17.6229 9.50441 17.0324 10.4639 16.0501C11.4234 15.0679 11.9835 13.7641 12.0355 12.392V6.811C12.0355 6.6479 11.9707 6.49146 11.8554 6.37613C11.7401 6.26079 11.5836 6.19598 11.4205 6.19598H11.4155Z" fill="#868686"/>
<path d="M6.22311 15.105C6.65213 15.105 7.07694 15.0205 7.47327 14.8562C7.86959 14.6919 8.22964 14.4511 8.53287 14.1476C8.83609 13.8441 9.07654 13.4839 9.24045 13.0874C9.40435 12.6909 9.48852 12.266 9.48813 11.837V3.267C9.48813 2.83797 9.40362 2.41316 9.23944 2.01678C9.07526 1.62041 8.83459 1.26025 8.53122 0.956879C8.22785 0.65351 7.86771 0.41287 7.47134 0.248688C7.07497 0.0845056 6.65016 0 6.22113 0C5.7921 0 5.36726 0.0845056 4.97089 0.248688C4.57452 0.41287 4.21438 0.65351 3.91101 0.956879C3.60764 1.26025 3.36697 1.62041 3.20279 2.01678C3.03861 2.41316 2.9541 2.83797 2.9541 3.267V11.837C2.95437 12.7037 3.29878 13.5347 3.91159 14.1475C4.5244 14.7603 5.35546 15.1047 6.22211 15.105H6.22311Z" fill="#868686"/>
</svg>
