<svg width="18" height="21" viewBox="0 0 18 21" fill="none" xmlns="http://www.w3.org/2000/svg">
<path d="M15.5351 4.715C15.4736 4.67855 15.404 4.65815 15.3326 4.65566C15.2612 4.65316 15.1904 4.66866 15.1265 4.70073C15.0627 4.7328 15.008 4.7804 14.9673 4.83916C14.9267 4.89792 14.9015 4.96595 14.8941 5.037C14.8791 5.177 14.8551 5.317 14.8251 5.464C13.9891 9.264 12.3091 11.106 9.68907 11.106H5.84407C5.74566 11.1061 5.6503 11.1402 5.57413 11.2025C5.49796 11.2648 5.44566 11.3516 5.42607 11.448L4.14407 17.455L3.91507 18.984C3.87999 19.1687 3.88601 19.3589 3.93268 19.541C3.97935 19.7231 4.06554 19.8928 4.18514 20.0378C4.30473 20.1829 4.45477 20.2999 4.62465 20.3804C4.79453 20.461 4.98007 20.5032 5.16808 20.504H7.74007C8.02638 20.5048 8.30464 20.4093 8.53009 20.2328C8.75554 20.0563 8.91509 19.8091 8.98308 19.531L10.0221 15.378H12.2511C14.8821 15.378 16.7001 13.278 17.3701 9.472C17.5863 8.58658 17.5264 7.65619 17.1983 6.80582C16.8703 5.95546 16.2899 5.22584 15.5351 4.715Z" fill="#03A9F4"/>
<path d="M14.7309 1.523C14.3134 1.04967 13.8009 0.669456 13.2269 0.40707C12.6529 0.144685 12.03 0.00599177 11.3989 1.07319e-06H4.3249C3.81286 -0.00278963 3.31703 0.1794 2.92863 0.513057C2.54022 0.846714 2.28534 1.3094 2.21089 1.816L0.0108935 16.469C-0.0167032 16.6521 -0.00428998 16.8391 0.0472743 17.017C0.0988385 17.1948 0.188332 17.3594 0.309596 17.4994C0.430859 17.6394 0.581013 17.7515 0.749724 17.8279C0.918435 17.9043 1.10169 17.9432 1.28689 17.942H4.5679C4.66631 17.9419 4.76166 17.9078 4.83783 17.8455C4.914 17.7832 4.96631 17.6964 4.9859 17.6L6.1869 11.961H9.6869C12.7269 11.961 14.7349 9.836 15.6579 5.639C15.6949 5.47156 15.7232 5.30234 15.7429 5.132C15.8496 4.49303 15.8142 3.83842 15.6393 3.21466C15.4644 2.59091 15.1542 2.01334 14.7309 1.523Z" fill="#283593"/>
</svg>
