<svg width="66" height="66" viewBox="0 0 66 66" fill="none" xmlns="http://www.w3.org/2000/svg">
<path d="M42.8193 51.7441L52.6658 57.1151C53.2436 57.4301 53.7629 57.8174 54.2461 58.2396C48.5053 63.08 41.0946 66.0002 32.9977 66.0002C24.9606 66.0002 17.5972 63.1236 11.8726 58.3492C12.4006 57.9033 12.9734 57.5024 13.6085 57.1861L24.1524 51.9147C25.5147 51.2336 26.3752 49.8413 26.3752 48.3183V44.1815C26.0789 43.844 25.7401 43.4106 25.3778 42.8988C23.9407 40.869 22.8536 38.6362 22.1002 36.2938C20.7478 35.8766 19.7515 34.6276 19.7515 33.1432V28.7274C19.7515 27.7561 20.1837 26.8881 20.8549 26.2804V19.8971C20.8549 19.8971 19.5436 9.96338 32.9964 9.96338C46.4493 9.96338 45.138 19.8971 45.138 19.8971V26.2804C45.8105 26.8881 46.2414 27.7561 46.2414 28.7274V33.1432C46.2414 34.3063 45.6299 35.33 44.7146 35.9215C43.6113 40.7246 40.7222 44.1815 40.7222 44.1815V48.2162C40.7235 49.6857 41.5279 51.0393 42.8193 51.7441Z" fill="#E7ECED"/>
<path d="M32.4338 0.00491412C50.6561 -0.306409 65.6818 14.2137 65.9931 32.436C66.17 42.7682 61.5649 52.0543 54.2326 58.2297C53.7532 57.8113 53.2389 57.4278 52.6673 57.1164L42.8208 51.7455C41.5294 51.0407 40.7249 49.687 40.7249 48.2151V44.1804C40.7249 44.1804 43.6153 40.7234 44.7173 35.9203C45.6314 35.3288 46.2441 34.3064 46.2441 33.1421V28.7263C46.2441 27.755 45.8119 26.887 45.1407 26.2793V19.8959C45.1407 19.8959 46.452 9.96226 32.9992 9.96226C19.5463 9.96226 20.8576 19.8959 20.8576 19.8959V26.2793C20.1851 26.887 19.7542 27.755 19.7542 28.7263V33.1421C19.7542 34.6265 20.7505 35.8755 22.1029 36.2927C22.8563 38.6351 23.9434 40.8679 25.3805 42.8977C25.7428 43.4095 26.0816 43.8429 26.3779 44.1804V48.3172C26.3779 49.8402 25.5174 51.2337 24.1551 51.9136L13.6112 57.1849C12.9786 57.5012 12.407 57.901 11.8803 58.3455C4.76966 52.4155 0.175781 43.549 0.00518036 33.5643C-0.30864 15.3419 14.2102 0.316237 32.4338 0.00491412Z" fill="#969696"/>
</svg>
