<svg width="18" height="18" viewBox="0 0 18 18" fill="none" xmlns="http://www.w3.org/2000/svg">
<path d="M3.46154 5.53845C2.54348 5.53845 1.66303 5.90315 1.01386 6.55231C0.364697 7.20148 0 8.08193 0 8.99999C0 10.5165 1.49469 12.905 2.51966 14.3654C2.62599 14.5164 2.76706 14.6396 2.93098 14.7246C3.0949 14.8097 3.27687 14.8541 3.46154 14.8541C3.64621 14.8541 3.82818 14.8097 3.9921 14.7246C4.15602 14.6396 4.2971 14.5164 4.40343 14.3654C5.42839 12.905 6.92308 10.5165 6.92308 8.99999C6.92308 8.08193 6.55838 7.20148 5.90922 6.55231C5.26005 5.90315 4.3796 5.53845 3.46154 5.53845ZM3.46154 10.7308C3.11923 10.7308 2.7846 10.6293 2.49998 10.4391C2.21535 10.2489 1.99351 9.97859 1.86252 9.66233C1.73152 9.34607 1.69724 8.99807 1.76403 8.66234C1.83081 8.3266 1.99565 8.01821 2.2377 7.77615C2.47975 7.5341 2.78815 7.36926 3.12388 7.30248C3.45962 7.2357 3.80762 7.26997 4.12388 7.40097C4.44013 7.53197 4.71044 7.7538 4.90062 8.03843C5.0908 8.32305 5.19231 8.65768 5.19231 8.99999C5.19231 9.45902 5.00996 9.89925 4.68538 10.2238C4.3608 10.5484 3.92057 10.7308 3.46154 10.7308Z" fill="#3392E6"/>
<path d="M14.1924 6.85999e-06C13.6559 -0.00106238 13.1265 0.122876 12.6463 0.361996C12.166 0.601115 11.7481 0.948838 11.4256 1.37759C11.1031 1.80635 10.8849 2.30434 10.7883 2.83209C10.6918 3.35983 10.7195 3.90281 10.8693 4.41797L7.11426 6.38066C7.38608 6.75718 7.59758 7.17376 7.74114 7.6154L11.5097 5.64509C11.8784 6.09859 12.3559 6.45136 12.8977 6.67052C13.4395 6.88967 14.028 6.96807 14.6083 6.89841C15.1886 6.82875 15.7418 6.61329 16.2163 6.27213C16.6908 5.93096 17.0713 5.4752 17.3221 4.94732C17.573 4.41945 17.6861 3.83664 17.651 3.25325C17.6158 2.66986 17.4335 2.10487 17.121 1.61095C16.8086 1.11703 16.3761 0.710268 15.864 0.428581C15.3519 0.146894 14.7769 -0.000545506 14.1924 6.85999e-06ZM14.1924 5.53847C13.7816 5.53847 13.3801 5.41666 13.0385 5.18845C12.697 4.96023 12.4308 4.63586 12.2736 4.25635C12.1164 3.87684 12.0753 3.45924 12.1554 3.05636C12.2355 2.65348 12.4333 2.2834 12.7238 1.99294C13.0143 1.70248 13.3843 1.50467 13.7872 1.42453C14.1901 1.34439 14.6077 1.38552 14.9872 1.54272C15.3667 1.69992 15.6911 1.96612 15.9193 2.30767C16.1475 2.64922 16.2693 3.05077 16.2693 3.46155C16.2688 4.01221 16.0498 4.54017 15.6604 4.92955C15.271 5.31893 14.7431 5.53792 14.1924 5.53847Z" fill="#5E5E5E"/>
<path d="M14.1927 11.0769C13.6786 11.0769 13.171 11.1917 12.7069 11.4128C12.2428 11.6339 11.8339 11.9557 11.51 12.3549L7.72753 10.3777C7.58916 10.8215 7.41946 11.2549 7.21973 11.6747L10.8696 13.582C10.669 14.2799 10.6929 15.0231 10.9379 15.7066C11.1829 16.3901 11.6367 16.9793 12.235 17.3907C12.8333 17.8021 13.5458 18.015 14.2718 17.9992C14.9977 17.9834 15.7003 17.7397 16.2801 17.3026C16.8599 16.8655 17.2876 16.2571 17.5026 15.5636C17.7177 14.8701 17.7092 14.1265 17.4783 13.438C17.2475 12.7496 16.806 12.1512 16.2164 11.7274C15.6267 11.3037 14.9188 11.0761 14.1927 11.0769ZM14.1927 16.6154C13.7819 16.6154 13.3803 16.4936 13.0388 16.2654C12.6972 16.0371 12.431 15.7128 12.2738 15.3333C12.1166 14.9538 12.0755 14.5362 12.1556 14.1333C12.2358 13.7304 12.4336 13.3603 12.724 13.0698C13.0145 12.7794 13.3846 12.5816 13.7875 12.5014C14.1903 12.4213 14.6079 12.4624 14.9875 12.6196C15.367 12.7768 15.6913 13.043 15.9196 13.3846C16.1478 13.7261 16.2696 14.1277 16.2696 14.5385C16.269 15.0891 16.05 15.6171 15.6607 16.0065C15.2713 16.3958 14.7433 16.6148 14.1927 16.6154Z" fill="#5E5E5E"/>
</svg>
