<svg width="117" height="117" viewBox="0 0 117 117" fill="none" xmlns="http://www.w3.org/2000/svg">
<g filter="url(#filter0_d_88_424)">
<path d="M58.5 93C77.5538 93 93 77.5538 93 58.5C93 39.4462 77.5538 24 58.5 24C39.4462 24 24 39.4462 24 58.5C24 77.5538 39.4462 93 58.5 93Z" fill="#FF0012"/>
</g>
<path d="M45.58 65.126C44.704 65.126 43.912 64.976 43.204 64.676C42.508 64.376 41.956 63.944 41.548 63.38C41.14 62.816 40.93 62.15 40.918 61.382H43.618C43.654 61.898 43.834 62.306 44.158 62.606C44.494 62.906 44.95 63.056 45.526 63.056C46.114 63.056 46.576 62.918 46.912 62.642C47.248 62.354 47.416 61.982 47.416 61.526C47.416 61.154 47.302 60.848 47.074 60.608C46.846 60.368 46.558 60.182 46.21 60.05C45.874 59.906 45.406 59.75 44.806 59.582C43.99 59.342 43.324 59.108 42.808 58.88C42.304 58.64 41.866 58.286 41.494 57.818C41.134 57.338 40.954 56.702 40.954 55.91C40.954 55.166 41.14 54.518 41.512 53.966C41.884 53.414 42.406 52.994 43.078 52.706C43.75 52.406 44.518 52.256 45.382 52.256C46.678 52.256 47.728 52.574 48.532 53.21C49.348 53.834 49.798 54.71 49.882 55.838H47.11C47.086 55.406 46.9 55.052 46.552 54.776C46.216 54.488 45.766 54.344 45.202 54.344C44.71 54.344 44.314 54.47 44.014 54.722C43.726 54.974 43.582 55.34 43.582 55.82C43.582 56.156 43.69 56.438 43.906 56.666C44.134 56.882 44.41 57.062 44.734 57.206C45.07 57.338 45.538 57.494 46.138 57.674C46.954 57.914 47.62 58.154 48.136 58.394C48.652 58.634 49.096 58.994 49.468 59.474C49.84 59.954 50.026 60.584 50.026 61.364C50.026 62.036 49.852 62.66 49.504 63.236C49.156 63.812 48.646 64.274 47.974 64.622C47.302 64.958 46.504 65.126 45.58 65.126ZM58.0428 65.126C56.8668 65.126 55.7868 64.85 54.8028 64.298C53.8188 63.746 53.0388 62.984 52.4628 62.012C51.8868 61.028 51.5988 59.918 51.5988 58.682C51.5988 57.458 51.8868 56.36 52.4628 55.388C53.0388 54.404 53.8188 53.636 54.8028 53.084C55.7868 52.532 56.8668 52.256 58.0428 52.256C59.2308 52.256 60.3108 52.532 61.2828 53.084C62.2668 53.636 63.0408 54.404 63.6048 55.388C64.1808 56.36 64.4688 57.458 64.4688 58.682C64.4688 59.918 64.1808 61.028 63.6048 62.012C63.0408 62.984 62.2668 63.746 61.2828 64.298C60.2988 64.85 59.2188 65.126 58.0428 65.126ZM58.0428 62.876C58.7988 62.876 59.4648 62.708 60.0408 62.372C60.6168 62.024 61.0668 61.532 61.3908 60.896C61.7148 60.26 61.8768 59.522 61.8768 58.682C61.8768 57.842 61.7148 57.11 61.3908 56.486C61.0668 55.85 60.6168 55.364 60.0408 55.028C59.4648 54.692 58.7988 54.524 58.0428 54.524C57.2868 54.524 56.6148 54.692 56.0268 55.028C55.4508 55.364 55.0008 55.85 54.6768 56.486C54.3528 57.11 54.1908 57.842 54.1908 58.682C54.1908 59.522 54.3528 60.26 54.6768 60.896C55.0008 61.532 55.4508 62.024 56.0268 62.372C56.6148 62.708 57.2868 62.876 58.0428 62.876ZM70.6816 65.126C69.8056 65.126 69.0136 64.976 68.3056 64.676C67.6096 64.376 67.0576 63.944 66.6496 63.38C66.2416 62.816 66.0316 62.15 66.0196 61.382H68.7196C68.7556 61.898 68.9356 62.306 69.2596 62.606C69.5956 62.906 70.0516 63.056 70.6276 63.056C71.2156 63.056 71.6776 62.918 72.0136 62.642C72.3496 62.354 72.5176 61.982 72.5176 61.526C72.5176 61.154 72.4036 60.848 72.1756 60.608C71.9476 60.368 71.6596 60.182 71.3116 60.05C70.9756 59.906 70.5076 59.75 69.9076 59.582C69.0916 59.342 68.4256 59.108 67.9096 58.88C67.4056 58.64 66.9676 58.286 66.5956 57.818C66.2356 57.338 66.0556 56.702 66.0556 55.91C66.0556 55.166 66.2416 54.518 66.6136 53.966C66.9856 53.414 67.5076 52.994 68.1796 52.706C68.8516 52.406 69.6196 52.256 70.4836 52.256C71.7796 52.256 72.8296 52.574 73.6336 53.21C74.4496 53.834 74.8996 54.71 74.9836 55.838H72.2116C72.1876 55.406 72.0016 55.052 71.6536 54.776C71.3176 54.488 70.8676 54.344 70.3036 54.344C69.8116 54.344 69.4156 54.47 69.1156 54.722C68.8276 54.974 68.6836 55.34 68.6836 55.82C68.6836 56.156 68.7916 56.438 69.0076 56.666C69.2356 56.882 69.5116 57.062 69.8356 57.206C70.1716 57.338 70.6396 57.494 71.2396 57.674C72.0556 57.914 72.7216 58.154 73.2376 58.394C73.7536 58.634 74.1976 58.994 74.5696 59.474C74.9416 59.954 75.1276 60.584 75.1276 61.364C75.1276 62.036 74.9536 62.66 74.6056 63.236C74.2576 63.812 73.7476 64.274 73.0756 64.622C72.4036 64.958 71.6056 65.126 70.6816 65.126Z" fill="white"/>
<defs>
<filter id="filter0_d_88_424" x="0" y="0" width="117" height="117" filterUnits="userSpaceOnUse" color-interpolation-filters="sRGB">
<feFlood flood-opacity="0" result="BackgroundImageFix"/>
<feColorMatrix in="SourceAlpha" type="matrix" values="0 0 0 0 0 0 0 0 0 0 0 0 0 0 0 0 0 0 127 0" result="hardAlpha"/>
<feOffset/>
<feGaussianBlur stdDeviation="12"/>
<feComposite in2="hardAlpha" operator="out"/>
<feColorMatrix type="matrix" values="0 0 0 0 1 0 0 0 0 0 0 0 0 0 0.0705882 0 0 0 0.4 0"/>
<feBlend mode="normal" in2="BackgroundImageFix" result="effect1_dropShadow_88_424"/>
<feBlend mode="normal" in="SourceGraphic" in2="effect1_dropShadow_88_424" result="shape"/>
</filter>
</defs>
</svg>
