<svg width="51" height="17" viewBox="0 0 51 17" fill="none" xmlns="http://www.w3.org/2000/svg">
<path d="M19.238 0.287994L12.606 16.114H8.277L5.015 3.481C4.98448 3.18515 4.87903 2.90196 4.7086 2.65822C4.53817 2.41447 4.3084 2.21822 4.041 2.088C2.75469 1.47549 1.39731 1.02504 0 0.746994L0.1 0.287994H7.065C7.52056 0.287329 7.96132 0.449691 8.3076 0.745712C8.65387 1.04173 8.8828 1.45187 8.953 1.90199L10.678 11.062L14.938 0.289001H19.238V0.287994ZM36.194 10.944C36.213 6.769 30.418 6.544 30.459 4.675C30.47 4.105 31.011 3.502 32.194 3.349C33.5787 3.21663 34.9734 3.46054 36.231 4.05499L36.949 0.701004C35.7244 0.241909 34.4278 0.00486804 33.12 0.00100708C29.074 0.00100708 26.225 2.153 26.201 5.233C26.174 7.51 28.233 8.781 29.786 9.539C31.381 10.315 31.914 10.81 31.908 11.506C31.898 12.568 30.636 13.032 29.459 13.053C27.9942 13.0848 26.5458 12.7405 25.252 12.053L24.511 15.523C25.9632 16.0851 27.5078 16.3707 29.065 16.365C33.365 16.365 36.179 14.236 36.192 10.945M46.877 16.114H50.664L47.364 0.287994H43.864C43.4908 0.284993 43.1253 0.393908 42.8146 0.600677C42.5039 0.807447 42.2623 1.10258 42.121 1.448L35.982 16.114H40.282L41.135 13.751H46.388L46.877 16.114ZM42.309 10.507L44.465 4.565L45.705 10.507H42.309ZM25.088 0.287994L21.7 16.114H17.606L20.994 0.287994H25.088Z" fill="#3422F2"/>
</svg>
