<svg width="40" height="40" viewBox="0 0 40 40" fill="none" xmlns="http://www.w3.org/2000/svg">
<circle cx="20" cy="20" r="20" fill="#F0F0F0"/>
<path d="M20.0025 10H19.9975C14.4838 10 10 14.485 10 20C10 22.1875 10.705 24.215 11.9037 25.8612L10.6575 29.5763L14.5013 28.3475C16.0825 29.395 17.9688 30 20.0025 30C25.5162 30 30 25.5138 30 20C30 14.4863 25.5162 10 20.0025 10Z" fill="#4CAF50"/>
<path d="M25.8212 24.1212C25.5799 24.8025 24.6224 25.3675 23.8587 25.5325C23.3362 25.6437 22.6537 25.7325 20.3562 24.78C17.4174 23.5625 15.5249 20.5762 15.3774 20.3825C15.2362 20.1887 14.1899 18.8012 14.1899 17.3662C14.1899 15.9312 14.9187 15.2325 15.2124 14.9325C15.4537 14.6862 15.8524 14.5737 16.2349 14.5737C16.3587 14.5737 16.4699 14.58 16.5699 14.585C16.8637 14.5975 17.0112 14.615 17.2049 15.0787C17.4462 15.66 18.0337 17.095 18.1037 17.2425C18.1749 17.39 18.2462 17.59 18.1462 17.7837C18.0524 17.9837 17.9699 18.0725 17.8224 18.2425C17.6749 18.4125 17.5349 18.5425 17.3874 18.725C17.2524 18.8837 17.0999 19.0537 17.2699 19.3475C17.4399 19.635 18.0274 20.5937 18.8924 21.3637C20.0087 22.3575 20.9137 22.675 21.2374 22.81C21.4787 22.91 21.7662 22.8862 21.9424 22.6987C22.1662 22.4575 22.4424 22.0575 22.7237 21.6637C22.9237 21.3812 23.1762 21.3462 23.4412 21.4462C23.7112 21.54 25.1399 22.2462 25.4337 22.3925C25.7274 22.54 25.9212 22.61 25.9924 22.7337C26.0624 22.8575 26.0624 23.4387 25.8212 24.1212Z" fill="#FAFAFA"/>
</svg>
